<svg width="600" height="400" version="1.1" xmlns="http://www.w3.org/2000/svg" xmlns:xlink="http://www.w3.org/1999/xlink"><rect width="600" height="400" x="0" y="0" fill="#ffffff"></rect><line x1="60" x2="540" y1="340.0" y2="340.0" stroke-dasharray="none" stroke="#eeeeee" stroke-width="1"></line><line x1="55" x2="60" y1="340.0" y2="340.0" stroke="#000000" stroke-width="1"></line><text fill="#000000" font-size="10px" text-anchor="end" y="344.0" x="50">0.0</text><line x1="60" x2="540" y1="284.0" y2="284.0" stroke-dasharray="none" stroke="#eeeeee" stroke-width="1"></line><line x1="55" x2="60" y1="284.0" y2="284.0" stroke="#000000" stroke-width="1"></line><text fill="#000000" font-size="10px" text-anchor="end" y="288.0" x="50">1.7</text><line x1="60" x2="540" y1="228.0" y2="228.0" stroke-dasharray="none" stroke="#eeeeee" stroke-width="1"></line><line x1="55" x2="60" y1="228.0" y2="228.0" stroke="#000000" stroke-width="1"></line><text fill="#000000" font-size="10px" text-anchor="end" y="232.0" x="50">3.4</text><line x1="60" x2="540" y1="172.0" y2="172.0" stroke-dasharray="none" stroke="#eeeeee" stroke-width="1"></line><line x1="55" x2="60" y1="172.0" y2="172.0" stroke="#000000" stroke-width="1"></line><text fill="#000000" font-size="10px" text-anchor="end" y="176.0" x="50">5.1</text><line x1="60" x2="540" y1="116.0" y2="116.0" stroke-dasharray="none" stroke="#eeeeee" stroke-width="1"></line><line x1="55" x2="60" y1="116.0" y2="116.0" stroke="#000000" stroke-width="1"></line><text fill="#000000" font-size="10px" text-anchor="end" y="120.0" x="50">6.8</text><line x1="60" x2="540" y1="60.0" y2="60.0" stroke-dasharray="none" stroke="#eeeeee" stroke-width="1"></line><line x1="55" x2="60" y1="60.0" y2="60.0" stroke="#000000" stroke-width="1"></line><text fill="#000000" font-size="10px" text-anchor="end" y="64.0" x="50">8.5</text><line x1="108.0" x2="108.0" y1="60" y2="340" stroke-dasharray="none" stroke="#eeeeee" stroke-width="1"></line><text fill="#000000" font-size="10px" text-anchor="middle" y="360" x="108.0">sepal_length</text><line x1="236.0" x2="236.0" y1="60" y2="340" stroke-dasharray="none" stroke="#eeeeee" stroke-width="1"></line><text fill="#000000" font-size="10px" text-anchor="middle" y="360" x="236.0">sepal_width</text><line x1="364.0" x2="364.0" y1="60" y2="340" stroke-dasharray="none" stroke="#eeeeee" stroke-width="1"></line><text fill="#000000" font-size="10px" text-anchor="middle" y="360" x="364.0">petal_length</text><line x1="492.0" x2="492.0" y1="60" y2="340" stroke-dasharray="none" stroke="#eeeeee" stroke-width="1"></line><text fill="#000000" font-size="10px" text-anchor="middle" y="360" x="492.0">petal_width</text><line x1="60" x2="60" y1="60" y2="340" stroke="#000000" stroke-width="1"></line><line x1="60" x2="540" y1="340" y2="340" stroke="#000000" stroke-width="1"></line><text fill="#000000" font-size="12px" text-anchor="middle" y="380" x="300">:measurement</text><text transform="rotate(-90 10 200)" fill="#000000" font-size="12px" text-anchor="middle" y="200" x="10">:value</text><polyline points="107.56562955798853,208.23529411764707 107.25570775414263,206.85176470588235 106.79494478779479,205.46823529411765 106.15353801867677,204.08470588235292 105.31703593711151,202.70117647058822 104.29371523737966,201.31764705882352 103.1166733067732,199.93411764705883 101.83840850890415,198.55058823529413 100.51863322941972,197.1670588235294 99.20926897060663,195.7835294117647 97.94208283066658,194.4 96.72312408413431,193.01647058823528 95.53470758607747,191.63294117647058 94.34236231710034,190.24941176470588 93.10301814038336,188.86588235294118 91.77215874537578,187.4823529411765 90.31025983175029,186.0988235294118 88.69051324365721,184.71529411764703 86.90949456177094,183.33176470588234 85.00031016419689,181.94823529411764 83.04485347267548,180.56470588235297 81.17925330294455,179.18117647058827 79.58572239365253,177.79764705882354 78.4662846190674,176.41411764705882 78.0,175.03058823529412 78.2938436580122,173.64705882352942 79.34425978780986,172.26352941176472 81.02676231951239,170.87999999999997 83.12244993261677,169.4964705882353 85.37549412581342,168.1129411764706 87.56144027757244,166.7294117647059 89.54021745522414,165.3458823529412 91.27401454924326,163.96235294117648 92.80612059591198,162.57882352941175 94.21444069695971,161.19529411764705 95.56354869200078,159.81176470588235 96.87679739463428,158.42823529411768 98.13717418849791,157.04470588235293 99.30995997204303,155.66117647058823 100.3704624897975,154.27764705882353 101.32063907501403,152.89411764705883 102.18744655769085,151.51058823529414 103.00693654525287,150.1270588235294 103.8049858467793,148.7435294117647 104.58525320086173,147.36 105.32917439817591,145.97647058823532 106.00586027409247,144.59294117647062 106.58554408704867,143.20941176470586 107.05016323312584,141.82588235294116 107.39761104220135,140.44235294117647 107.63982012872701,139.05882352941177 108.36017987127299,139.05882352941177 108.60238895779865,140.44235294117647 108.94983676687416,141.82588235294116 109.41445591295133,143.20941176470586 109.99413972590753,144.59294117647062 110.67082560182409,145.97647058823532 111.41474679913827,147.36 112.1950141532207,148.7435294117647 112.99306345474713,150.1270588235294 113.81255344230915,151.51058823529414 114.67936092498597,152.89411764705883 115.6295375102025,154.27764705882353 116.69004002795697,155.66117647058823 117.86282581150209,157.04470588235293 119.12320260536572,158.42823529411768 120.43645130799922,159.81176470588235 121.78555930304029,161.19529411764705 123.19387940408802,162.57882352941175 124.72598545075674,163.96235294117648 126.45978254477586,165.3458823529412 128.43855972242756,166.7294117647059 130.62450587418658,168.1129411764706 132.87755006738323,169.4964705882353 134.9732376804876,170.87999999999997 136.65574021219012,172.26352941176472 137.70615634198782,173.64705882352942 138.0,175.03058823529412 137.53371538093262,176.41411764705882 136.41427760634747,177.79764705882354 134.82074669705545,179.18117647058827 132.95514652732453,180.56470588235297 130.9996898358031,181.94823529411764 129.09050543822906,183.33176470588234 127.30948675634279,184.71529411764703 125.68974016824971,186.0988235294118 124.22784125462422,187.4823529411765 122.89698185961664,188.86588235294118 121.65763768289966,190.24941176470588 120.46529241392253,191.63294117647058 119.27687591586569,193.01647058823528 118.05791716933342,194.4 116.79073102939337,195.7835294117647 115.48136677058028,197.1670588235294 114.16159149109585,198.55058823529413 112.8833266932268,199.93411764705883 111.70628476262034,201.31764705882352 110.68296406288849,202.70117647058822 109.84646198132323,204.08470588235292 109.20505521220521,205.46823529411765 108.74429224585737,206.85176470588235 108.43437044201147,208.23529411764707" stroke="#440154" fill="#440154" fill-opacity="0.4" stroke-width="1"><title>:measurement: sepal_length
:value: 5.0
:species: setosa</title> points="107.56562955798853,208.23529411764707 107.25570775414263,206.85176470588235 106.79494478779479,205.46823529411765 106.15353801867677,204.08470588235292 105.31703593711151,202.70117647058822 104.29371523737966,201.31764705882352 103.1166733067732,199.93411764705883 101.83840850890415,198.55058823529413 100.51863322941972,197.1670588235294 99.20926897060663,195.7835294117647 97.94208283066658,194.4 96.72312408413431,193.01647058823528 95.53470758607747,191.63294117647058 94.34236231710034,190.24941176470588 93.10301814038336,188.86588235294118 91.77215874537578,187.4823529411765 90.31025983175029,186.0988235294118 88.69051324365721,184.71529411764703 86.90949456177094,183.33176470588234 85.00031016419689,181.94823529411764 83.04485347267548,180.56470588235297 81.17925330294455,179.18117647058827 79.58572239365253,177.79764705882354 78.4662846190674,176.41411764705882 78.0,175.03058823529412 78.2938436580122,173.64705882352942 79.34425978780986,172.26352941176472 81.02676231951239,170.87999999999997 83.12244993261677,169.4964705882353 85.37549412581342,168.1129411764706 87.56144027757244,166.7294117647059 89.54021745522414,165.3458823529412 91.27401454924326,163.96235294117648 92.80612059591198,162.57882352941175 94.21444069695971,161.19529411764705 95.56354869200078,159.81176470588235 96.87679739463428,158.42823529411768 98.13717418849791,157.04470588235293 99.30995997204303,155.66117647058823 100.3704624897975,154.27764705882353 101.32063907501403,152.89411764705883 102.18744655769085,151.51058823529414 103.00693654525287,150.1270588235294 103.8049858467793,148.7435294117647 104.58525320086173,147.36 105.32917439817591,145.97647058823532 106.00586027409247,144.59294117647062 106.58554408704867,143.20941176470586 107.05016323312584,141.82588235294116 107.39761104220135,140.44235294117647 107.63982012872701,139.05882352941177 108.36017987127299,139.05882352941177 108.60238895779865,140.44235294117647 108.94983676687416,141.82588235294116 109.41445591295133,143.20941176470586 109.99413972590753,144.59294117647062 110.67082560182409,145.97647058823532 111.41474679913827,147.36 112.1950141532207,148.7435294117647 112.99306345474713,150.1270588235294 113.81255344230915,151.51058823529414 114.67936092498597,152.89411764705883 115.6295375102025,154.27764705882353 116.69004002795697,155.66117647058823 117.86282581150209,157.04470588235293 119.12320260536572,158.42823529411768 120.43645130799922,159.81176470588235 121.78555930304029,161.19529411764705 123.19387940408802,162.57882352941175 124.72598545075674,163.96235294117648 126.45978254477586,165.3458823529412 128.43855972242756,166.7294117647059 130.62450587418658,168.1129411764706 132.87755006738323,169.4964705882353 134.9732376804876,170.87999999999997 136.65574021219012,172.26352941176472 137.70615634198782,173.64705882352942 138.0,175.03058823529412 137.53371538093262,176.41411764705882 136.41427760634747,177.79764705882354 134.82074669705545,179.18117647058827 132.95514652732453,180.56470588235297 130.9996898358031,181.94823529411764 129.09050543822906,183.33176470588234 127.30948675634279,184.71529411764703 125.68974016824971,186.0988235294118 124.22784125462422,187.4823529411765 122.89698185961664,188.86588235294118 121.65763768289966,190.24941176470588 120.46529241392253,191.63294117647058 119.27687591586569,193.01647058823528 118.05791716933342,194.4 116.79073102939337,195.7835294117647 115.48136677058028,197.1670588235294 114.16159149109585,198.55058823529413 112.8833266932268,199.93411764705883 111.70628476262034,201.31764705882352 110.68296406288849,202.70117647058822 109.84646198132323,204.08470588235292 109.20505521220521,205.46823529411765 108.74429224585737,206.85176470588235 108.43437044201147,208.23529411764707" stroke="#440154" fill="#440154" fill-opacity="0.4" stroke-width="1" drake-tooltip=":measurement: sepal_length
:value: 5.0
:species: setosa"></polyline><line x1="78.0" x2="138.0" y1="175.2941176470588" y2="175.2941176470588" stroke="black" stroke-width="2"></line><polyline points="107.3934238319769,192.4235294117647 107.01598332112117,190.48658823529414 106.48867507687349,188.5496470588235 105.79967269415734,186.6127058823529 104.95812006666851,184.67576470588233 103.99681818908427,182.73882352941177 102.96661642360537,180.80188235294116 101.92133592285386,178.86494117647055 100.89603705884171,176.928 99.88563161395828,174.99105882352941 98.83316319902568,173.0541176470588 97.6357843933325,171.11717647058822 96.17112758173263,169.18023529411764 94.33885533726685,167.24329411764703 92.10472539719181,165.30635294117647 89.53099491056352,163.3694117647059 86.77973561557009,161.43247058823528 84.08443184065382,159.4955294117647 81.69701245666236,157.5585882352941 79.8273488820982,155.62164705882353 78.59572835651818,153.68470588235294 78.01401307924954,151.74776470588233 78.0,149.81082352941175 78.4167885500434,147.8738823529412 79.120316113267,145.93694117647058 79.9971732324245,143.99999999999997 80.98120058333956,142.06305882352942 82.0476144719388,140.1261176470588 83.19254256139376,138.18917647058822 84.41011988554772,136.25223529411767 85.67778574237404,134.31529411764706 86.9549459658011,132.37835294117644 88.19376142787041,130.4414117647059 89.3560834978741,128.5044705882353 90.42876590661503,126.56752941176467 91.43079292404464,124.63058823529411 92.40912078525906,122.69364705882353 93.42454758283469,120.75670588235295 94.53268932556882,118.81976470588239 95.7667610956653,116.88282352941175 97.12771148483867,114.94588235294117 98.58401957389736,113.00894117647059 100.0798130184799,111.072 101.54757344873451,109.13505882352939 102.92127516151484,107.19811764705884 104.14690660301744,105.26117647058825 105.18892434611638,103.32423529411764 106.03247188146145,101.38729411764709 106.68193610962368,99.45035294117645 107.15680064004472,97.51341176470586 107.48599170553929,95.57647058823531 108.51400829446071,95.57647058823531 108.84319935995528,97.51341176470586 109.31806389037632,99.45035294117645 109.96752811853855,101.38729411764709 110.81107565388362,103.32423529411764 111.85309339698256,105.26117647058825 113.07872483848516,107.19811764705884 114.45242655126549,109.13505882352939 115.9201869815201,111.072 117.41598042610264,113.00894117647059 118.87228851516133,114.94588235294117 120.2332389043347,116.88282352941175 121.46731067443118,118.81976470588239 122.57545241716531,120.75670588235295 123.59087921474094,122.69364705882353 124.56920707595536,124.63058823529411 125.57123409338497,126.56752941176467 126.6439165021259,128.5044705882353 127.80623857212959,130.4414117647059 129.0450540341989,132.37835294117644 130.32221425762597,134.31529411764706 131.58988011445228,136.25223529411767 132.80745743860624,138.18917647058822 133.9523855280612,140.1261176470588 135.01879941666044,142.06305882352942 136.0028267675755,143.99999999999997 136.879683886733,145.93694117647058 137.5832114499566,147.8738823529412 138.0,149.81082352941175 137.98598692075046,151.74776470588233 137.40427164348182,153.68470588235294 136.1726511179018,155.62164705882353 134.30298754333762,157.5585882352941 131.91556815934618,159.4955294117647 129.22026438442992,161.43247058823528 126.46900508943648,163.3694117647059 123.89527460280819,165.30635294117647 121.66114466273315,167.24329411764703 119.82887241826737,169.18023529411764 118.3642156066675,171.11717647058822 117.16683680097432,173.0541176470588 116.11436838604172,174.99105882352941 115.10396294115829,176.928 114.07866407714614,178.86494117647055 113.03338357639463,180.80188235294116 112.00318181091573,182.73882352941177 111.04187993333149,184.67576470588233 110.20032730584266,186.6127058823529 109.51132492312651,188.5496470588235 108.98401667887883,190.48658823529414 108.6065761680231,192.4235294117647" stroke="#414487" fill="#414487" fill-opacity="0.4" stroke-width="1"><title>:measurement: sepal_length
:value: 5.9
:species: versicolor</title> points="107.3934238319769,192.4235294117647 107.01598332112117,190.48658823529414 106.48867507687349,188.5496470588235 105.79967269415734,186.6127058823529 104.95812006666851,184.67576470588233 103.99681818908427,182.73882352941177 102.96661642360537,180.80188235294116 101.92133592285386,178.86494117647055 100.89603705884171,176.928 99.88563161395828,174.99105882352941 98.83316319902568,173.0541176470588 97.6357843933325,171.11717647058822 96.17112758173263,169.18023529411764 94.33885533726685,167.24329411764703 92.10472539719181,165.30635294117647 89.53099491056352,163.3694117647059 86.77973561557009,161.43247058823528 84.08443184065382,159.4955294117647 81.69701245666236,157.5585882352941 79.8273488820982,155.62164705882353 78.59572835651818,153.68470588235294 78.01401307924954,151.74776470588233 78.0,149.81082352941175 78.4167885500434,147.8738823529412 79.120316113267,145.93694117647058 79.9971732324245,143.99999999999997 80.98120058333956,142.06305882352942 82.0476144719388,140.1261176470588 83.19254256139376,138.18917647058822 84.41011988554772,136.25223529411767 85.67778574237404,134.31529411764706 86.9549459658011,132.37835294117644 88.19376142787041,130.4414117647059 89.3560834978741,128.5044705882353 90.42876590661503,126.56752941176467 91.43079292404464,124.63058823529411 92.40912078525906,122.69364705882353 93.42454758283469,120.75670588235295 94.53268932556882,118.81976470588239 95.7667610956653,116.88282352941175 97.12771148483867,114.94588235294117 98.58401957389736,113.00894117647059 100.0798130184799,111.072 101.54757344873451,109.13505882352939 102.92127516151484,107.19811764705884 104.14690660301744,105.26117647058825 105.18892434611638,103.32423529411764 106.03247188146145,101.38729411764709 106.68193610962368,99.45035294117645 107.15680064004472,97.51341176470586 107.48599170553929,95.57647058823531 108.51400829446071,95.57647058823531 108.84319935995528,97.51341176470586 109.31806389037632,99.45035294117645 109.96752811853855,101.38729411764709 110.81107565388362,103.32423529411764 111.85309339698256,105.26117647058825 113.07872483848516,107.19811764705884 114.45242655126549,109.13505882352939 115.9201869815201,111.072 117.41598042610264,113.00894117647059 118.87228851516133,114.94588235294117 120.2332389043347,116.88282352941175 121.46731067443118,118.81976470588239 122.57545241716531,120.75670588235295 123.59087921474094,122.69364705882353 124.56920707595536,124.63058823529411 125.57123409338497,126.56752941176467 126.6439165021259,128.5044705882353 127.80623857212959,130.4414117647059 129.0450540341989,132.37835294117644 130.32221425762597,134.31529411764706 131.58988011445228,136.25223529411767 132.80745743860624,138.18917647058822 133.9523855280612,140.1261176470588 135.01879941666044,142.06305882352942 136.0028267675755,143.99999999999997 136.879683886733,145.93694117647058 137.5832114499566,147.8738823529412 138.0,149.81082352941175 137.98598692075046,151.74776470588233 137.40427164348182,153.68470588235294 136.1726511179018,155.62164705882353 134.30298754333762,157.5585882352941 131.91556815934618,159.4955294117647 129.22026438442992,161.43247058823528 126.46900508943648,163.3694117647059 123.89527460280819,165.30635294117647 121.66114466273315,167.24329411764703 119.82887241826737,169.18023529411764 118.3642156066675,171.11717647058822 117.16683680097432,173.0541176470588 116.11436838604172,174.99105882352941 115.10396294115829,176.928 114.07866407714614,178.86494117647055 113.03338357639463,180.80188235294116 112.00318181091573,182.73882352941177 111.04187993333149,184.67576470588233 110.20032730584266,186.6127058823529 109.51132492312651,188.5496470588235 108.98401667887883,190.48658823529414 108.6065761680231,192.4235294117647" stroke="#414487" fill="#414487" fill-opacity="0.4" stroke-width="1" drake-tooltip=":measurement: sepal_length
:value: 5.9
:species: versicolor"></polyline><line x1="78.0" x2="138.0" y1="145.6470588235294" y2="145.6470588235294" stroke="black" stroke-width="2"></line><polyline points="107.84572243791312,198.35294117647055 107.73129662543393,195.58588235294116 107.56921175401149,192.81882352941176 107.36384211453552,190.05176470588233 107.13344655413201,187.2847058823529 106.9078636726053,184.51764705882348 106.718240597051,181.75058823529412 106.58050288749044,178.9835294117647 106.47853183834273,176.21647058823527 106.35495482577444,173.44941176470584 106.11549031749955,170.68235294117648 105.64766463282646,167.91529411764705 104.84882195621968,165.14823529411763 103.6540503254951,162.3811764705882 102.05342114721061,159.6141176470588 100.09069773282592,156.8470588235294 97.84278878238723,154.07999999999998 95.38918376726718,151.31294117647056 92.78860552467494,148.54588235294116 90.0795537514196,145.77882352941174 87.30896660449406,143.01176470588234 84.57385693331337,140.24470588235292 82.04710728191867,137.47764705882352 79.96268230422349,134.7105882352941 78.55817828608463,131.94352941176467 78.0,129.1764705882353 78.32891585244501,126.40941176470588 79.45168997071133,123.64235294117645 81.17708940820064,120.875294117647 83.27231597252072,118.10823529411763 85.51303297326896,115.34117647058824 87.7135093400154,112.57411764705881 89.73833699873884,109.80705882352939 91.50297888720814,107.03999999999999 92.96858429596239,104.27294117647057 94.1346290246057,101.50588235294117 95.03357775847981,98.73882352941175 95.73046633382876,95.97176470588235 96.32386440208306,93.20470588235293 96.93800658146058,90.4376470588235 97.69774377532345,87.6705882352941 98.69026361972273,84.90352941176474 99.93104719878497,82.13647058823528 101.35393622046267,79.36941176470583 102.83300656069892,76.60235294117643 104.22599593645188,73.83529411764704 105.41830643589911,71.06823529411764 106.34933196228067,68.30117647058819 107.01490857512069,65.53411764705879 107.45181239859318,62.767058823529396 107.71577132326301,60.0 108.28422867673699,60.0 108.54818760140682,62.767058823529396 108.98509142487931,65.53411764705879 109.65066803771933,68.30117647058819 110.58169356410089,71.06823529411764 111.77400406354812,73.83529411764704 113.16699343930108,76.60235294117643 114.64606377953733,79.36941176470583 116.06895280121503,82.13647058823528 117.30973638027727,84.90352941176474 118.30225622467655,87.6705882352941 119.06199341853942,90.4376470588235 119.67613559791694,93.20470588235293 120.26953366617124,95.97176470588235 120.96642224152019,98.73882352941175 121.8653709753943,101.50588235294117 123.03141570403761,104.27294117647057 124.49702111279186,107.03999999999999 126.26166300126116,109.80705882352939 128.2864906599846,112.57411764705881 130.48696702673104,115.34117647058824 132.72768402747928,118.10823529411763 134.82291059179937,120.875294117647 136.54831002928867,123.64235294117645 137.671084147555,126.40941176470588 138.0,129.1764705882353 137.44182171391537,131.94352941176467 136.03731769577652,134.7105882352941 133.95289271808133,137.47764705882352 131.42614306668662,140.24470588235292 128.69103339550594,143.01176470588234 125.9204462485804,145.77882352941174 123.21139447532506,148.54588235294116 120.61081623273282,151.31294117647056 118.15721121761277,154.07999999999998 115.90930226717408,156.8470588235294 113.94657885278939,159.6141176470588 112.3459496745049,162.3811764705882 111.15117804378032,165.14823529411763 110.35233536717354,167.91529411764705 109.88450968250045,170.68235294117648 109.64504517422556,173.44941176470584 109.52146816165727,176.21647058823527 109.41949711250956,178.9835294117647 109.281759402949,181.75058823529412 109.0921363273947,184.51764705882348 108.86655344586799,187.2847058823529 108.63615788546448,190.05176470588233 108.43078824598851,192.81882352941176 108.26870337456607,195.58588235294116 108.15427756208688,198.35294117647055" stroke="#2a788e" fill="#2a788e" fill-opacity="0.4" stroke-width="1"><title>:measurement: sepal_length
:value: 6.5
:species: virginica</title> points="107.84572243791312,198.35294117647055 107.73129662543393,195.58588235294116 107.56921175401149,192.81882352941176 107.36384211453552,190.05176470588233 107.13344655413201,187.2847058823529 106.9078636726053,184.51764705882348 106.718240597051,181.75058823529412 106.58050288749044,178.9835294117647 106.47853183834273,176.21647058823527 106.35495482577444,173.44941176470584 106.11549031749955,170.68235294117648 105.64766463282646,167.91529411764705 104.84882195621968,165.14823529411763 103.6540503254951,162.3811764705882 102.05342114721061,159.6141176470588 100.09069773282592,156.8470588235294 97.84278878238723,154.07999999999998 95.38918376726718,151.31294117647056 92.78860552467494,148.54588235294116 90.0795537514196,145.77882352941174 87.30896660449406,143.01176470588234 84.57385693331337,140.24470588235292 82.04710728191867,137.47764705882352 79.96268230422349,134.7105882352941 78.55817828608463,131.94352941176467 78.0,129.1764705882353 78.32891585244501,126.40941176470588 79.45168997071133,123.64235294117645 81.17708940820064,120.875294117647 83.27231597252072,118.10823529411763 85.51303297326896,115.34117647058824 87.7135093400154,112.57411764705881 89.73833699873884,109.80705882352939 91.50297888720814,107.03999999999999 92.96858429596239,104.27294117647057 94.1346290246057,101.50588235294117 95.03357775847981,98.73882352941175 95.73046633382876,95.97176470588235 96.32386440208306,93.20470588235293 96.93800658146058,90.4376470588235 97.69774377532345,87.6705882352941 98.69026361972273,84.90352941176474 99.93104719878497,82.13647058823528 101.35393622046267,79.36941176470583 102.83300656069892,76.60235294117643 104.22599593645188,73.83529411764704 105.41830643589911,71.06823529411764 106.34933196228067,68.30117647058819 107.01490857512069,65.53411764705879 107.45181239859318,62.767058823529396 107.71577132326301,60.0 108.28422867673699,60.0 108.54818760140682,62.767058823529396 108.98509142487931,65.53411764705879 109.65066803771933,68.30117647058819 110.58169356410089,71.06823529411764 111.77400406354812,73.83529411764704 113.16699343930108,76.60235294117643 114.64606377953733,79.36941176470583 116.06895280121503,82.13647058823528 117.30973638027727,84.90352941176474 118.30225622467655,87.6705882352941 119.06199341853942,90.4376470588235 119.67613559791694,93.20470588235293 120.26953366617124,95.97176470588235 120.96642224152019,98.73882352941175 121.8653709753943,101.50588235294117 123.03141570403761,104.27294117647057 124.49702111279186,107.03999999999999 126.26166300126116,109.80705882352939 128.2864906599846,112.57411764705881 130.48696702673104,115.34117647058824 132.72768402747928,118.10823529411763 134.82291059179937,120.875294117647 136.54831002928867,123.64235294117645 137.671084147555,126.40941176470588 138.0,129.1764705882353 137.44182171391537,131.94352941176467 136.03731769577652,134.7105882352941 133.95289271808133,137.47764705882352 131.42614306668662,140.24470588235292 128.69103339550594,143.01176470588234 125.9204462485804,145.77882352941174 123.21139447532506,148.54588235294116 120.61081623273282,151.31294117647056 118.15721121761277,154.07999999999998 115.90930226717408,156.8470588235294 113.94657885278939,159.6141176470588 112.3459496745049,162.3811764705882 111.15117804378032,165.14823529411763 110.35233536717354,167.91529411764705 109.88450968250045,170.68235294117648 109.64504517422556,173.44941176470584 109.52146816165727,176.21647058823527 109.41949711250956,178.9835294117647 109.281759402949,181.75058823529412 109.0921363273947,184.51764705882348 108.86655344586799,187.2847058823529 108.63615788546448,190.05176470588233 108.43078824598851,192.81882352941176 108.26870337456607,195.58588235294116 108.15427756208688,198.35294117647055" stroke="#2a788e" fill="#2a788e" fill-opacity="0.4" stroke-width="1" drake-tooltip=":measurement: sepal_length
:value: 6.5
:species: virginica"></polyline><line x1="78.0" x2="138.0" y1="125.88235294117649" y2="125.88235294117649" stroke="black" stroke-width="2"></line><polyline points="235.92548397066116,278.07058823529417 235.84122524585666,276.13364705882356 235.69810304089376,274.19670588235294 235.48774538719482,272.2597647058824 235.22432905493895,270.3228235294118 234.95170364777735,268.38588235294117 234.73502894775206,266.4489411764706 234.6351622855151,264.512 234.67672502013767,262.57505882352945 234.8269171743417,260.63811764705883 234.99417332428195,258.7011764705882 235.04030858294257,256.76423529411767 234.7930753457044,254.82729411764706 234.05661440989724,252.8903529411765 232.63491163122484,250.9534117647059 230.38667004247372,249.0164705882353 227.3068021624231,247.07952941176472 223.59271258950966,245.1425882352941 219.63602863748437,243.20564705882356 215.910291567877,241.26870588235295 212.79432978027202,239.33176470588234 210.43123901005026,237.39482352941178 208.71946893857043,235.4578823529412 207.45252062723523,233.5209411764706 206.51621467327274,231.584 206.0,229.64705882352945 206.13443523372132,227.71011764705884 207.10011195058345,225.77317647058823 208.85839926217938,223.83623529411767 211.1374940281238,221.89929411764706 213.57903697059348,219.96235294117645 215.92414824148113,218.0254117647059 218.10144253523492,216.08847058823528 220.17508447652077,214.15152941176473 222.2224724110884,212.21458823529412 224.24553335174366,210.27764705882353 226.16706301717613,208.34070588235295 227.88751031937704,206.40376470588234 229.3434554993162,204.46682352941178 230.52948128643496,202.52988235294117 231.48521181456397,200.5929411764706 232.27030985483773,198.656 232.94400928343978,196.71905882352942 233.55133915982688,194.7821176470588 234.1138670948501,192.84517647058826 234.627472537622,190.90823529411765 235.07091402906968,188.97129411764706 235.42217695130802,187.03435294117645 235.67285840579248,185.0974117647059 235.83248727248076,183.1604705882353 235.92276909412894,181.22352941176467 236.07723090587106,181.22352941176467 236.16751272751924,183.1604705882353 236.32714159420752,185.0974117647059 236.57782304869198,187.03435294117645 236.92908597093032,188.97129411764706 237.372527462378,190.90823529411765 237.8861329051499,192.84517647058826 238.44866084017312,194.7821176470588 239.05599071656022,196.71905882352942 239.72969014516227,198.656 240.51478818543603,200.5929411764706 241.47051871356504,202.52988235294117 242.6565445006838,204.46682352941178 244.11248968062296,206.40376470588234 245.83293698282387,208.34070588235295 247.75446664825634,210.27764705882353 249.7775275889116,212.21458823529412 251.82491552347923,214.15152941176473 253.89855746476508,216.08847058823528 256.07585175851887,218.0254117647059 258.4209630294065,219.96235294117645 260.8625059718762,221.89929411764706 263.1416007378206,223.83623529411767 264.8998880494166,225.77317647058823 265.8655647662787,227.71011764705884 266.0,229.64705882352945 265.48378532672723,231.584 264.54747937276477,233.5209411764706 263.2805310614296,235.4578823529412 261.56876098994974,237.39482352941178 259.20567021972795,239.33176470588234 256.089708432123,241.26870588235295 252.36397136251563,243.20564705882356 248.40728741049034,245.1425882352941 244.6931978375769,247.07952941176472 241.61332995752628,249.0164705882353 239.36508836877516,250.9534117647059 237.94338559010276,252.8903529411765 237.2069246542956,254.82729411764706 236.95969141705743,256.76423529411767 237.00582667571805,258.7011764705882 237.1730828256583,260.63811764705883 237.32327497986233,262.57505882352945 237.3648377144849,264.512 237.26497105224794,266.4489411764706 237.04829635222265,268.38588235294117 236.77567094506105,270.3228235294118 236.51225461280518,272.2597647058824 236.30189695910624,274.19670588235294 236.15877475414334,276.13364705882356 236.07451602933884,278.07058823529417" stroke="#440154" fill="#440154" fill-opacity="0.4" stroke-width="1"><title>:measurement: sepal_width
:value: 3.4
:species: setosa</title> points="235.92548397066116,278.07058823529417 235.84122524585666,276.13364705882356 235.69810304089376,274.19670588235294 235.48774538719482,272.2597647058824 235.22432905493895,270.3228235294118 234.95170364777735,268.38588235294117 234.73502894775206,266.4489411764706 234.6351622855151,264.512 234.67672502013767,262.57505882352945 234.8269171743417,260.63811764705883 234.99417332428195,258.7011764705882 235.04030858294257,256.76423529411767 234.7930753457044,254.82729411764706 234.05661440989724,252.8903529411765 232.63491163122484,250.9534117647059 230.38667004247372,249.0164705882353 227.3068021624231,247.07952941176472 223.59271258950966,245.1425882352941 219.63602863748437,243.20564705882356 215.910291567877,241.26870588235295 212.79432978027202,239.33176470588234 210.43123901005026,237.39482352941178 208.71946893857043,235.4578823529412 207.45252062723523,233.5209411764706 206.51621467327274,231.584 206.0,229.64705882352945 206.13443523372132,227.71011764705884 207.10011195058345,225.77317647058823 208.85839926217938,223.83623529411767 211.1374940281238,221.89929411764706 213.57903697059348,219.96235294117645 215.92414824148113,218.0254117647059 218.10144253523492,216.08847058823528 220.17508447652077,214.15152941176473 222.2224724110884,212.21458823529412 224.24553335174366,210.27764705882353 226.16706301717613,208.34070588235295 227.88751031937704,206.40376470588234 229.3434554993162,204.46682352941178 230.52948128643496,202.52988235294117 231.48521181456397,200.5929411764706 232.27030985483773,198.656 232.94400928343978,196.71905882352942 233.55133915982688,194.7821176470588 234.1138670948501,192.84517647058826 234.627472537622,190.90823529411765 235.07091402906968,188.97129411764706 235.42217695130802,187.03435294117645 235.67285840579248,185.0974117647059 235.83248727248076,183.1604705882353 235.92276909412894,181.22352941176467 236.07723090587106,181.22352941176467 236.16751272751924,183.1604705882353 236.32714159420752,185.0974117647059 236.57782304869198,187.03435294117645 236.92908597093032,188.97129411764706 237.372527462378,190.90823529411765 237.8861329051499,192.84517647058826 238.44866084017312,194.7821176470588 239.05599071656022,196.71905882352942 239.72969014516227,198.656 240.51478818543603,200.5929411764706 241.47051871356504,202.52988235294117 242.6565445006838,204.46682352941178 244.11248968062296,206.40376470588234 245.83293698282387,208.34070588235295 247.75446664825634,210.27764705882353 249.7775275889116,212.21458823529412 251.82491552347923,214.15152941176473 253.89855746476508,216.08847058823528 256.07585175851887,218.0254117647059 258.4209630294065,219.96235294117645 260.8625059718762,221.89929411764706 263.1416007378206,223.83623529411767 264.8998880494166,225.77317647058823 265.8655647662787,227.71011764705884 266.0,229.64705882352945 265.48378532672723,231.584 264.54747937276477,233.5209411764706 263.2805310614296,235.4578823529412 261.56876098994974,237.39482352941178 259.20567021972795,239.33176470588234 256.089708432123,241.26870588235295 252.36397136251563,243.20564705882356 248.40728741049034,245.1425882352941 244.6931978375769,247.07952941176472 241.61332995752628,249.0164705882353 239.36508836877516,250.9534117647059 237.94338559010276,252.8903529411765 237.2069246542956,254.82729411764706 236.95969141705743,256.76423529411767 237.00582667571805,258.7011764705882 237.1730828256583,260.63811764705883 237.32327497986233,262.57505882352945 237.3648377144849,264.512 237.26497105224794,266.4489411764706 237.04829635222265,268.38588235294117 236.77567094506105,270.3228235294118 236.51225461280518,272.2597647058824 236.30189695910624,274.19670588235294 236.15877475414334,276.13364705882356 236.07451602933884,278.07058823529417" stroke="#440154" fill="#440154" fill-opacity="0.4" stroke-width="1" drake-tooltip=":measurement: sepal_width
:value: 3.4
:species: setosa"></polyline><line x1="206.0" x2="266.0" y1="228.0" y2="228.0" stroke="black" stroke-width="2"></line><polyline points="235.78344172688435,283.34117647058827 235.63511459068212,282.04988235294115 235.4223514164086,280.75858823529416 235.13616622441668,279.46729411764704 234.7709943180095,278.176 234.32171488924337,276.88470588235293 233.77860511287557,275.5934117647059 233.1234211884155,274.3021176470588 232.33056804259633,273.01082352941177 231.37530027953616,271.7195294117647 230.2466994329106,270.42823529411766 228.95938694675664,269.1369411764706 227.5574048731887,267.84564705882354 226.10722202344917,266.5543529411765 224.68228220289822,265.26305882352943 223.3453664889215,263.9717647058824 222.13503371113194,262.68047058823527 221.05918431947262,261.38917647058827 220.0951701334467,260.09788235294116 219.19438478573014,258.80658823529416 218.290184929821,257.51529411764704 217.30938968399866,256.224 216.18737962698245,254.93270588235293 214.884746627381,253.64141176470588 213.40140443310625,252.35011764705882 211.78415702085414,251.05882352941177 210.12612207803812,249.7675294117647 208.5591105366005,248.47623529411766 207.24081447089003,247.1849411764706 206.33728630605123,245.89364705882355 206.0,244.60235294117646 206.3383859948926,243.31105882352944 207.3932179366821,242.01976470588238 209.12033580511738,240.72847058823533 211.39363185346036,239.43717647058827 214.02952268156773,238.14588235294121 216.8255611598504,236.85458823529413 219.59942017629717,235.56329411764705 222.21535034733694,234.27200000000002 224.59241648554269,232.98070588235294 226.6972989727043,231.6894117647059 228.52925473584696,230.39811764705883 230.10460132000628,229.10682352941177 231.44498415104133,227.81552941176471 232.57064993746897,226.52423529411766 233.4982843140401,225.2329411764706 234.2422508832783,223.94164705882355 234.8175688626275,222.6503529411765 235.24268485406526,221.35905882352944 235.54046634500017,220.06776470588238 235.73692628970582,218.7764705882353 236.26307371029418,218.7764705882353 236.45953365499983,220.06776470588238 236.75731514593474,221.35905882352944 237.1824311373725,222.6503529411765 237.7577491167217,223.94164705882355 238.5017156859599,225.2329411764706 239.42935006253103,226.52423529411766 240.55501584895867,227.81552941176471 241.89539867999372,229.10682352941177 243.47074526415304,230.39811764705883 245.3027010272957,231.6894117647059 247.40758351445731,232.98070588235294 249.78464965266306,234.27200000000002 252.40057982370283,235.56329411764705 255.1744388401496,236.85458823529413 257.9704773184323,238.14588235294121 260.60636814653964,239.43717647058827 262.8796641948826,240.72847058823533 264.6067820633179,242.01976470588238 265.66161400510737,243.31105882352944 266.0,244.60235294117646 265.6627136939488,245.89364705882355 264.75918552910997,247.1849411764706 263.44088946339946,248.47623529411766 261.8738779219619,249.7675294117647 260.21584297914586,251.05882352941177 258.5985955668938,252.35011764705882 257.115253372619,253.64141176470588 255.81262037301755,254.93270588235293 254.69061031600134,256.224 253.709815070179,257.51529411764704 252.80561521426986,258.80658823529416 251.9048298665533,260.09788235294116 250.94081568052738,261.38917647058827 249.86496628886806,262.68047058823527 248.6546335110785,263.9717647058824 247.31771779710178,265.26305882352943 245.89277797655083,266.5543529411765 244.4425951268113,267.84564705882354 243.04061305324336,269.1369411764706 241.7533005670894,270.42823529411766 240.62469972046384,271.7195294117647 239.66943195740367,273.01082352941177 238.8765788115845,274.3021176470588 238.22139488712443,275.5934117647059 237.67828511075663,276.88470588235293 237.2290056819905,278.176 236.86383377558332,279.46729411764704 236.5776485835914,280.75858823529416 236.36488540931788,282.04988235294115 236.21655827311565,283.34117647058827" stroke="#414487" fill="#414487" fill-opacity="0.4" stroke-width="1"><title>:measurement: sepal_width
:value: 2.8
:species: versicolor</title> points="235.78344172688435,283.34117647058827 235.63511459068212,282.04988235294115 235.4223514164086,280.75858823529416 235.13616622441668,279.46729411764704 234.7709943180095,278.176 234.32171488924337,276.88470588235293 233.77860511287557,275.5934117647059 233.1234211884155,274.3021176470588 232.33056804259633,273.01082352941177 231.37530027953616,271.7195294117647 230.2466994329106,270.42823529411766 228.95938694675664,269.1369411764706 227.5574048731887,267.84564705882354 226.10722202344917,266.5543529411765 224.68228220289822,265.26305882352943 223.3453664889215,263.9717647058824 222.13503371113194,262.68047058823527 221.05918431947262,261.38917647058827 220.0951701334467,260.09788235294116 219.19438478573014,258.80658823529416 218.290184929821,257.51529411764704 217.30938968399866,256.224 216.18737962698245,254.93270588235293 214.884746627381,253.64141176470588 213.40140443310625,252.35011764705882 211.78415702085414,251.05882352941177 210.12612207803812,249.7675294117647 208.5591105366005,248.47623529411766 207.24081447089003,247.1849411764706 206.33728630605123,245.89364705882355 206.0,244.60235294117646 206.3383859948926,243.31105882352944 207.3932179366821,242.01976470588238 209.12033580511738,240.72847058823533 211.39363185346036,239.43717647058827 214.02952268156773,238.14588235294121 216.8255611598504,236.85458823529413 219.59942017629717,235.56329411764705 222.21535034733694,234.27200000000002 224.59241648554269,232.98070588235294 226.6972989727043,231.6894117647059 228.52925473584696,230.39811764705883 230.10460132000628,229.10682352941177 231.44498415104133,227.81552941176471 232.57064993746897,226.52423529411766 233.4982843140401,225.2329411764706 234.2422508832783,223.94164705882355 234.8175688626275,222.6503529411765 235.24268485406526,221.35905882352944 235.54046634500017,220.06776470588238 235.73692628970582,218.7764705882353 236.26307371029418,218.7764705882353 236.45953365499983,220.06776470588238 236.75731514593474,221.35905882352944 237.1824311373725,222.6503529411765 237.7577491167217,223.94164705882355 238.5017156859599,225.2329411764706 239.42935006253103,226.52423529411766 240.55501584895867,227.81552941176471 241.89539867999372,229.10682352941177 243.47074526415304,230.39811764705883 245.3027010272957,231.6894117647059 247.40758351445731,232.98070588235294 249.78464965266306,234.27200000000002 252.40057982370283,235.56329411764705 255.1744388401496,236.85458823529413 257.9704773184323,238.14588235294121 260.60636814653964,239.43717647058827 262.8796641948826,240.72847058823533 264.6067820633179,242.01976470588238 265.66161400510737,243.31105882352944 266.0,244.60235294117646 265.6627136939488,245.89364705882355 264.75918552910997,247.1849411764706 263.44088946339946,248.47623529411766 261.8738779219619,249.7675294117647 260.21584297914586,251.05882352941177 258.5985955668938,252.35011764705882 257.115253372619,253.64141176470588 255.81262037301755,254.93270588235293 254.69061031600134,256.224 253.709815070179,257.51529411764704 252.80561521426986,258.80658823529416 251.9048298665533,260.09788235294116 250.94081568052738,261.38917647058827 249.86496628886806,262.68047058823527 248.6546335110785,263.9717647058824 247.31771779710178,265.26305882352943 245.89277797655083,266.5543529411765 244.4425951268113,267.84564705882354 243.04061305324336,269.1369411764706 241.7533005670894,270.42823529411766 240.62469972046384,271.7195294117647 239.66943195740367,273.01082352941177 238.8765788115845,274.3021176470588 238.22139488712443,275.5934117647059 237.67828511075663,276.88470588235293 237.2290056819905,278.176 236.86383377558332,279.46729411764704 236.5776485835914,280.75858823529416 236.36488540931788,282.04988235294115 236.21655827311565,283.34117647058827" stroke="#414487" fill="#414487" fill-opacity="0.4" stroke-width="1" drake-tooltip=":measurement: sepal_width
:value: 2.8
:species: versicolor"></polyline><line x1="206.0" x2="266.0" y1="247.76470588235293" y2="247.76470588235293" stroke="black" stroke-width="2"></line><polyline points="235.8750505548222,278.0705882352941 235.76810812071892,276.59482352941177 235.60575642650846,275.1190588235294 235.38360922212746,273.6432941176471 235.1075916908059,272.1675294117647 234.78939226334117,270.69176470588235 234.4325902749866,269.216 234.0145331186962,267.7402352941176 233.47597899179382,266.26447058823527 232.7305403302257,264.78870588235293 231.6954428917737,263.3129411764706 230.32911192280937,261.83717647058825 228.6520424666808,260.36141176470585 226.73550391599525,258.8856470588235 224.66494473717398,257.40988235294117 222.50447932916657,255.93411764705883 220.2876936803543,254.45835294117649 218.03708765169205,252.98258823529412 215.7896732986395,251.50682352941175 213.6035890052498,250.0310588235294 211.5437611337925,248.55529411764707 209.67013395092556,247.07952941176472 208.05090974165554,245.60376470588236 206.7929767397499,244.128 206.05304208396163,242.65223529411765 206.0,241.1764705882353 206.74071567893114,239.70070588235293 208.2586154714792,238.22494117647057 210.4097295092627,236.74917647058822 212.97768811667157,235.27341176470588 215.74759284892417,233.79764705882354 218.5532374653104,232.32188235294117 221.28071811806996,230.8461176470588 223.84444216785806,229.37035294117646 226.16381696574095,227.89458823529412 228.158597013994,226.41882352941175 229.76264485863229,224.94305882352944 230.94415330342383,223.46729411764704 231.71983265133824,221.9915294117647 232.15693601532715,220.51576470588236 232.36321684902876,219.04000000000002 232.46725491435183,217.56423529411762 232.59193455382444,216.08847058823528 232.82612179724075,214.61270588235294 233.20369531656115,213.1369411764706 233.69990792794755,211.66117647058823 234.24846891404712,210.1854117647059 234.7717619426291,208.70964705882355 235.20958504158733,207.23388235294115 235.53422407122673,205.7581176470588 235.74902868758969,204.28235294117647 236.25097131241031,204.28235294117647 236.46577592877327,205.7581176470588 236.79041495841267,207.23388235294115 237.2282380573709,208.70964705882355 237.75153108595288,210.1854117647059 238.30009207205245,211.66117647058823 238.79630468343885,213.1369411764706 239.17387820275925,214.61270588235294 239.40806544617556,216.08847058823528 239.53274508564817,217.56423529411762 239.63678315097124,219.04000000000002 239.84306398467285,220.51576470588236 240.28016734866176,221.9915294117647 241.05584669657617,223.46729411764704 242.23735514136771,224.94305882352944 243.841402986006,226.41882352941175 245.83618303425905,227.89458823529412 248.15555783214194,229.37035294117646 250.71928188193004,230.8461176470588 253.4467625346896,232.32188235294117 256.25240715107583,233.79764705882354 259.0223118833284,235.27341176470588 261.5902704907373,236.74917647058822 263.74138452852077,238.22494117647057 265.25928432106883,239.70070588235293 266.0,241.1764705882353 265.9469579160384,242.65223529411765 265.2070232602501,244.128 263.9490902583444,245.60376470588236 262.32986604907444,247.07952941176472 260.4562388662075,248.55529411764707 258.3964109947502,250.0310588235294 256.2103267013605,251.50682352941175 253.96291234830795,252.98258823529412 251.7123063196457,254.45835294117649 249.49552067083343,255.93411764705883 247.33505526282602,257.40988235294117 245.26449608400475,258.8856470588235 243.3479575333192,260.36141176470585 241.67088807719063,261.83717647058825 240.3045571082263,263.3129411764706 239.2694596697743,264.78870588235293 238.52402100820618,266.26447058823527 237.9854668813038,267.7402352941176 237.5674097250134,269.216 237.21060773665883,270.69176470588235 236.8924083091941,272.1675294117647 236.61639077787254,273.6432941176471 236.39424357349154,275.1190588235294 236.23189187928108,276.59482352941177 236.1249494451778,278.0705882352941" stroke="#2a788e" fill="#2a788e" fill-opacity="0.4" stroke-width="1"><title>:measurement: sepal_width
:value: 3.0
:species: virginica</title> points="235.8750505548222,278.0705882352941 235.76810812071892,276.59482352941177 235.60575642650846,275.1190588235294 235.38360922212746,273.6432941176471 235.1075916908059,272.1675294117647 234.78939226334117,270.69176470588235 234.4325902749866,269.216 234.0145331186962,267.7402352941176 233.47597899179382,266.26447058823527 232.7305403302257,264.78870588235293 231.6954428917737,263.3129411764706 230.32911192280937,261.83717647058825 228.6520424666808,260.36141176470585 226.73550391599525,258.8856470588235 224.66494473717398,257.40988235294117 222.50447932916657,255.93411764705883 220.2876936803543,254.45835294117649 218.03708765169205,252.98258823529412 215.7896732986395,251.50682352941175 213.6035890052498,250.0310588235294 211.5437611337925,248.55529411764707 209.67013395092556,247.07952941176472 208.05090974165554,245.60376470588236 206.7929767397499,244.128 206.05304208396163,242.65223529411765 206.0,241.1764705882353 206.74071567893114,239.70070588235293 208.2586154714792,238.22494117647057 210.4097295092627,236.74917647058822 212.97768811667157,235.27341176470588 215.74759284892417,233.79764705882354 218.5532374653104,232.32188235294117 221.28071811806996,230.8461176470588 223.84444216785806,229.37035294117646 226.16381696574095,227.89458823529412 228.158597013994,226.41882352941175 229.76264485863229,224.94305882352944 230.94415330342383,223.46729411764704 231.71983265133824,221.9915294117647 232.15693601532715,220.51576470588236 232.36321684902876,219.04000000000002 232.46725491435183,217.56423529411762 232.59193455382444,216.08847058823528 232.82612179724075,214.61270588235294 233.20369531656115,213.1369411764706 233.69990792794755,211.66117647058823 234.24846891404712,210.1854117647059 234.7717619426291,208.70964705882355 235.20958504158733,207.23388235294115 235.53422407122673,205.7581176470588 235.74902868758969,204.28235294117647 236.25097131241031,204.28235294117647 236.46577592877327,205.7581176470588 236.79041495841267,207.23388235294115 237.2282380573709,208.70964705882355 237.75153108595288,210.1854117647059 238.30009207205245,211.66117647058823 238.79630468343885,213.1369411764706 239.17387820275925,214.61270588235294 239.40806544617556,216.08847058823528 239.53274508564817,217.56423529411762 239.63678315097124,219.04000000000002 239.84306398467285,220.51576470588236 240.28016734866176,221.9915294117647 241.05584669657617,223.46729411764704 242.23735514136771,224.94305882352944 243.841402986006,226.41882352941175 245.83618303425905,227.89458823529412 248.15555783214194,229.37035294117646 250.71928188193004,230.8461176470588 253.4467625346896,232.32188235294117 256.25240715107583,233.79764705882354 259.0223118833284,235.27341176470588 261.5902704907373,236.74917647058822 263.74138452852077,238.22494117647057 265.25928432106883,239.70070588235293 266.0,241.1764705882353 265.9469579160384,242.65223529411765 265.2070232602501,244.128 263.9490902583444,245.60376470588236 262.32986604907444,247.07952941176472 260.4562388662075,248.55529411764707 258.3964109947502,250.0310588235294 256.2103267013605,251.50682352941175 253.96291234830795,252.98258823529412 251.7123063196457,254.45835294117649 249.49552067083343,255.93411764705883 247.33505526282602,257.40988235294117 245.26449608400475,258.8856470588235 243.3479575333192,260.36141176470585 241.67088807719063,261.83717647058825 240.3045571082263,263.3129411764706 239.2694596697743,264.78870588235293 238.52402100820618,266.26447058823527 237.9854668813038,267.7402352941176 237.5674097250134,269.216 237.21060773665883,270.69176470588235 236.8924083091941,272.1675294117647 236.61639077787254,273.6432941176471 236.39424357349154,275.1190588235294 236.23189187928108,276.59482352941177 236.1249494451778,278.0705882352941" stroke="#2a788e" fill="#2a788e" fill-opacity="0.4" stroke-width="1" drake-tooltip=":measurement: sepal_width
:value: 3.0
:species: virginica"></polyline><line x1="206.0" x2="266.0" y1="241.1764705882353" y2="241.1764705882353" stroke="black" stroke-width="2"></line><polyline points="363.90093485542496,312.98823529411766 363.8039289227786,312.1581176470588 363.6469898843479,311.328 363.42012680061225,310.4978823529412 363.1271494686238,309.66776470588235 362.78845500823843,308.83764705882356 362.43536291597144,308.0075294117647 362.0966430818052,307.1774117647059 361.7832462686765,306.34729411764704 361.47867970940763,305.5171764705882 361.13848490059894,304.6870588235294 360.6965442373934,303.8569411764706 360.0736786910313,303.0268235294118 359.18665155619743,302.19670588235294 357.9596781001812,301.3665882352941 356.3407081051451,300.53647058823526 354.3193768498079,299.7063529411765 351.93734156603784,298.87623529411763 349.28302768988755,298.04611764705885 346.47375501183024,297.216 343.63850738611455,296.38588235294117 340.91168408444497,295.5557647058823 338.43503816076185,294.72564705882354 336.35824842509345,293.8955294117647 334.83413795077576,293.0654117647059 334.0086727245544,292.2352941176471 334.0,291.40517647058823 334.8603112535497,290.5750588235294 336.5336264014859,289.74494117647055 338.8432322474818,288.91482352941176 341.53226084866776,288.084705882353 344.3417300262771,287.25458823529414 347.0812638792873,286.4244705882353 349.6558955840071,285.59435294117645 352.0440549899126,284.7642352941176 354.2477375440071,283.9341176470588 356.24467510725685,283.104 357.9686533939359,282.2738823529412 359.3303802259001,281.44376470588236 360.26854264116497,280.6136470588235 360.7997599195265,279.7835294117647 361.0334850549595,278.9534117647059 361.1385161611161,278.12329411764705 361.27815583490394,277.29317647058826 361.5500645095018,276.4630588235294 361.9621301099487,275.6329411764706 362.45192752162376,274.80282352941174 362.9319455019549,273.9727058823529 363.33244538812903,273.1425882352941 363.6224473045464,272.31247058823527 363.8068725237657,271.4823529411765 364.1931274762343,271.4823529411765 364.3775526954536,272.31247058823527 364.66755461187097,273.1425882352941 365.0680544980451,273.9727058823529 365.54807247837624,274.80282352941174 366.0378698900513,275.6329411764706 366.4499354904982,276.4630588235294 366.72184416509606,277.29317647058826 366.8614838388839,278.12329411764705 366.9665149450405,278.9534117647059 367.2002400804735,279.7835294117647 367.73145735883503,280.6136470588235 368.6696197740999,281.44376470588236 370.0313466060641,282.2738823529412 371.75532489274315,283.104 373.7522624559929,283.9341176470588 375.9559450100874,284.7642352941176 378.3441044159929,285.59435294117645 380.9187361207127,286.4244705882353 383.6582699737229,287.25458823529414 386.46773915133224,288.084705882353 389.1567677525182,288.91482352941176 391.4663735985141,289.74494117647055 393.1396887464503,290.5750588235294 394.0,291.40517647058823 393.9913272754456,292.2352941176471 393.16586204922424,293.0654117647059 391.64175157490655,293.8955294117647 389.56496183923815,294.72564705882354 387.08831591555503,295.5557647058823 384.36149261388545,296.38588235294117 381.52624498816976,297.216 378.71697231011245,298.04611764705885 376.06265843396216,298.87623529411763 373.6806231501921,299.7063529411765 371.6592918948549,300.53647058823526 370.0403218998188,301.3665882352941 368.81334844380257,302.19670588235294 367.9263213089687,303.0268235294118 367.3034557626066,303.8569411764706 366.86151509940106,304.6870588235294 366.52132029059237,305.5171764705882 366.2167537313235,306.34729411764704 365.9033569181948,307.1774117647059 365.56463708402856,308.0075294117647 365.21154499176157,308.83764705882356 364.8728505313762,309.66776470588235 364.57987319938775,310.4978823529412 364.3530101156521,311.328 364.1960710772214,312.1581176470588 364.09906514457504,312.98823529411766" stroke="#440154" fill="#440154" fill-opacity="0.4" stroke-width="1"><title>:measurement: petal_length
:value: 1.5
:species: setosa</title> points="363.90093485542496,312.98823529411766 363.8039289227786,312.1581176470588 363.6469898843479,311.328 363.42012680061225,310.4978823529412 363.1271494686238,309.66776470588235 362.78845500823843,308.83764705882356 362.43536291597144,308.0075294117647 362.0966430818052,307.1774117647059 361.7832462686765,306.34729411764704 361.47867970940763,305.5171764705882 361.13848490059894,304.6870588235294 360.6965442373934,303.8569411764706 360.0736786910313,303.0268235294118 359.18665155619743,302.19670588235294 357.9596781001812,301.3665882352941 356.3407081051451,300.53647058823526 354.3193768498079,299.7063529411765 351.93734156603784,298.87623529411763 349.28302768988755,298.04611764705885 346.47375501183024,297.216 343.63850738611455,296.38588235294117 340.91168408444497,295.5557647058823 338.43503816076185,294.72564705882354 336.35824842509345,293.8955294117647 334.83413795077576,293.0654117647059 334.0086727245544,292.2352941176471 334.0,291.40517647058823 334.8603112535497,290.5750588235294 336.5336264014859,289.74494117647055 338.8432322474818,288.91482352941176 341.53226084866776,288.084705882353 344.3417300262771,287.25458823529414 347.0812638792873,286.4244705882353 349.6558955840071,285.59435294117645 352.0440549899126,284.7642352941176 354.2477375440071,283.9341176470588 356.24467510725685,283.104 357.9686533939359,282.2738823529412 359.3303802259001,281.44376470588236 360.26854264116497,280.6136470588235 360.7997599195265,279.7835294117647 361.0334850549595,278.9534117647059 361.1385161611161,278.12329411764705 361.27815583490394,277.29317647058826 361.5500645095018,276.4630588235294 361.9621301099487,275.6329411764706 362.45192752162376,274.80282352941174 362.9319455019549,273.9727058823529 363.33244538812903,273.1425882352941 363.6224473045464,272.31247058823527 363.8068725237657,271.4823529411765 364.1931274762343,271.4823529411765 364.3775526954536,272.31247058823527 364.66755461187097,273.1425882352941 365.0680544980451,273.9727058823529 365.54807247837624,274.80282352941174 366.0378698900513,275.6329411764706 366.4499354904982,276.4630588235294 366.72184416509606,277.29317647058826 366.8614838388839,278.12329411764705 366.9665149450405,278.9534117647059 367.2002400804735,279.7835294117647 367.73145735883503,280.6136470588235 368.6696197740999,281.44376470588236 370.0313466060641,282.2738823529412 371.75532489274315,283.104 373.7522624559929,283.9341176470588 375.9559450100874,284.7642352941176 378.3441044159929,285.59435294117645 380.9187361207127,286.4244705882353 383.6582699737229,287.25458823529414 386.46773915133224,288.084705882353 389.1567677525182,288.91482352941176 391.4663735985141,289.74494117647055 393.1396887464503,290.5750588235294 394.0,291.40517647058823 393.9913272754456,292.2352941176471 393.16586204922424,293.0654117647059 391.64175157490655,293.8955294117647 389.56496183923815,294.72564705882354 387.08831591555503,295.5557647058823 384.36149261388545,296.38588235294117 381.52624498816976,297.216 378.71697231011245,298.04611764705885 376.06265843396216,298.87623529411763 373.6806231501921,299.7063529411765 371.6592918948549,300.53647058823526 370.0403218998188,301.3665882352941 368.81334844380257,302.19670588235294 367.9263213089687,303.0268235294118 367.3034557626066,303.8569411764706 366.86151509940106,304.6870588235294 366.52132029059237,305.5171764705882 366.2167537313235,306.34729411764704 365.9033569181948,307.1774117647059 365.56463708402856,308.0075294117647 365.21154499176157,308.83764705882356 364.8728505313762,309.66776470588235 364.57987319938775,310.4978823529412 364.3530101156521,311.328 364.1960710772214,312.1581176470588 364.09906514457504,312.98823529411766" stroke="#440154" fill="#440154" fill-opacity="0.4" stroke-width="1" drake-tooltip=":measurement: petal_length
:value: 1.5
:species: setosa"></polyline><line x1="334.0" x2="394.0" y1="290.5882352941177" y2="290.5882352941177" stroke="black" stroke-width="2"></line><polyline points="363.7828903137945,255.01176470588234 363.63473440141956,253.07482352941173 363.4239168398928,251.13788235294118 363.14461821400363,249.2009411764706 362.7975175367603,247.264 362.38824061316564,245.3270588235294 361.9233523040419,243.39011764705884 361.4062155736541,241.45317647058823 360.83574588603,239.51623529411765 360.2095709604237,237.57929411764707 359.5300035833792,235.64235294117645 358.80864811397083,233.7054117647059 358.06536424231166,231.7684705882353 357.3199629955758,229.8315294117647 356.57886753810425,227.89458823529412 355.82206129375555,225.95764705882354 354.9968284526891,224.02070588235296 354.02375256951177,222.08376470588234 352.81701725846244,220.1468235294118 351.31535860575303,218.20988235294118 349.5135303936789,216.2729411764706 347.48021766725435,214.336 345.3506439764974,212.3990588235294 343.29165719375135,210.46211764705882 341.4502779611053,208.52517647058824 339.90669808372905,206.58823529411765 338.65335262948275,204.65129411764707 337.6114271042187,202.71435294117646 336.6793600493014,200.7774117647059 335.79267125468084,198.8404705882353 334.96848483600866,196.90352941176474 334.3147155040979,194.96658823529413 334.0,193.0296470588235 334.1979947204562,191.09270588235296 335.0297942519998,189.15576470588235 336.52646979059386,187.21882352941176 338.62241280964145,185.2818823529412 341.17638968657593,183.3449411764706 344.0078895428131,181.40800000000002 346.9343486748311,179.47105882352943 349.798679218099,177.53411764705885 352.4827941480195,175.5971764705882 354.90854652881154,173.66023529411765 357.03103451478785,171.72329411764707 358.829997062446,169.7863529411765 360.30335324543444,167.84941176470593 361.46399705444435,165.9124705882353 362.33841009375556,163.9755294117647 362.9647643405724,162.03858823529413 363.38907884582545,160.10164705882354 363.65969536724765,158.16470588235293 364.34030463275235,158.16470588235293 364.61092115417455,160.10164705882354 365.0352356594276,162.03858823529413 365.66158990624444,163.9755294117647 366.53600294555565,165.9124705882353 367.69664675456556,167.84941176470593 369.170002937554,169.7863529411765 370.96896548521215,171.72329411764707 373.09145347118846,173.66023529411765 375.5172058519805,175.5971764705882 378.201320781901,177.53411764705885 381.0656513251689,179.47105882352943 383.9921104571869,181.40800000000002 386.82361031342407,183.3449411764706 389.37758719035855,185.2818823529412 391.47353020940614,187.21882352941176 392.9702057480002,189.15576470588235 393.8020052795438,191.09270588235296 394.0,193.0296470588235 393.6852844959021,194.96658823529413 393.03151516399134,196.90352941176474 392.20732874531916,198.8404705882353 391.3206399506986,200.7774117647059 390.3885728957813,202.71435294117646 389.34664737051725,204.65129411764707 388.09330191627095,206.58823529411765 386.5497220388947,208.52517647058824 384.70834280624865,210.46211764705882 382.6493560235026,212.3990588235294 380.51978233274565,214.336 378.4864696063211,216.2729411764706 376.68464139424697,218.20988235294118 375.18298274153756,220.1468235294118 373.97624743048823,222.08376470588234 373.0031715473109,224.02070588235296 372.17793870624445,225.95764705882354 371.42113246189575,227.89458823529412 370.6800370044242,229.8315294117647 369.93463575768834,231.7684705882353 369.19135188602917,233.7054117647059 368.4699964166208,235.64235294117645 367.7904290395763,237.57929411764707 367.16425411397,239.51623529411765 366.5937844263459,241.45317647058823 366.0766476959581,243.39011764705884 365.61175938683436,245.3270588235294 365.2024824632397,247.264 364.85538178599637,249.2009411764706 364.5760831601072,251.13788235294118 364.36526559858044,253.07482352941173 364.2171096862055,255.01176470588234" stroke="#414487" fill="#414487" fill-opacity="0.4" stroke-width="1"><title>:measurement: petal_length
:value: 4.35
:species: versicolor</title> points="363.7828903137945,255.01176470588234 363.63473440141956,253.07482352941173 363.4239168398928,251.13788235294118 363.14461821400363,249.2009411764706 362.7975175367603,247.264 362.38824061316564,245.3270588235294 361.9233523040419,243.39011764705884 361.4062155736541,241.45317647058823 360.83574588603,239.51623529411765 360.2095709604237,237.57929411764707 359.5300035833792,235.64235294117645 358.80864811397083,233.7054117647059 358.06536424231166,231.7684705882353 357.3199629955758,229.8315294117647 356.57886753810425,227.89458823529412 355.82206129375555,225.95764705882354 354.9968284526891,224.02070588235296 354.02375256951177,222.08376470588234 352.81701725846244,220.1468235294118 351.31535860575303,218.20988235294118 349.5135303936789,216.2729411764706 347.48021766725435,214.336 345.3506439764974,212.3990588235294 343.29165719375135,210.46211764705882 341.4502779611053,208.52517647058824 339.90669808372905,206.58823529411765 338.65335262948275,204.65129411764707 337.6114271042187,202.71435294117646 336.6793600493014,200.7774117647059 335.79267125468084,198.8404705882353 334.96848483600866,196.90352941176474 334.3147155040979,194.96658823529413 334.0,193.0296470588235 334.1979947204562,191.09270588235296 335.0297942519998,189.15576470588235 336.52646979059386,187.21882352941176 338.62241280964145,185.2818823529412 341.17638968657593,183.3449411764706 344.0078895428131,181.40800000000002 346.9343486748311,179.47105882352943 349.798679218099,177.53411764705885 352.4827941480195,175.5971764705882 354.90854652881154,173.66023529411765 357.03103451478785,171.72329411764707 358.829997062446,169.7863529411765 360.30335324543444,167.84941176470593 361.46399705444435,165.9124705882353 362.33841009375556,163.9755294117647 362.9647643405724,162.03858823529413 363.38907884582545,160.10164705882354 363.65969536724765,158.16470588235293 364.34030463275235,158.16470588235293 364.61092115417455,160.10164705882354 365.0352356594276,162.03858823529413 365.66158990624444,163.9755294117647 366.53600294555565,165.9124705882353 367.69664675456556,167.84941176470593 369.170002937554,169.7863529411765 370.96896548521215,171.72329411764707 373.09145347118846,173.66023529411765 375.5172058519805,175.5971764705882 378.201320781901,177.53411764705885 381.0656513251689,179.47105882352943 383.9921104571869,181.40800000000002 386.82361031342407,183.3449411764706 389.37758719035855,185.2818823529412 391.47353020940614,187.21882352941176 392.9702057480002,189.15576470588235 393.8020052795438,191.09270588235296 394.0,193.0296470588235 393.6852844959021,194.96658823529413 393.03151516399134,196.90352941176474 392.20732874531916,198.8404705882353 391.3206399506986,200.7774117647059 390.3885728957813,202.71435294117646 389.34664737051725,204.65129411764707 388.09330191627095,206.58823529411765 386.5497220388947,208.52517647058824 384.70834280624865,210.46211764705882 382.6493560235026,212.3990588235294 380.51978233274565,214.336 378.4864696063211,216.2729411764706 376.68464139424697,218.20988235294118 375.18298274153756,220.1468235294118 373.97624743048823,222.08376470588234 373.0031715473109,224.02070588235296 372.17793870624445,225.95764705882354 371.42113246189575,227.89458823529412 370.6800370044242,229.8315294117647 369.93463575768834,231.7684705882353 369.19135188602917,233.7054117647059 368.4699964166208,235.64235294117645 367.7904290395763,237.57929411764707 367.16425411397,239.51623529411765 366.5937844263459,241.45317647058823 366.0766476959581,243.39011764705884 365.61175938683436,245.3270588235294 365.2024824632397,247.264 364.85538178599637,249.2009411764706 364.5760831601072,251.13788235294118 364.36526559858044,253.07482352941173 364.2171096862055,255.01176470588234" stroke="#414487" fill="#414487" fill-opacity="0.4" stroke-width="1" drake-tooltip=":measurement: petal_length
:value: 4.35
:species: versicolor"></polyline><line x1="334.0" x2="394.0" y1="196.7058823529412" y2="196.7058823529412" stroke="black" stroke-width="2"></line><polyline points="363.71764894169905,207.5764705882353 363.519977697247,205.36282352941177 363.22232750715966,203.14917647058823 362.7912254943574,200.93552941176472 362.1842721371834,198.7218823529412 361.3465874599056,196.50823529411764 360.2094479609164,194.29458823529413 358.695789381272,192.0809411764706 356.7365769193816,189.86729411764708 354.29794640909967,187.65364705882357 351.4124663279955,185.44 348.2019581110433,183.2263529411765 344.87786571958827,181.01270588235295 341.7105760082742,178.7990588235294 338.9706343318538,176.5854117647059 336.8583095275251,174.37176470588233 335.4471136925433,172.15811764705882 334.66588089718016,169.94447058823528 334.33093536299475,167.73082352941177 334.21900244515285,165.51717647058823 334.15247780999596,163.3035294117647 334.0618276774287,161.08988235294117 334.0,158.87623529411766 334.1062171095667,156.66258823529412 334.5395315479694,154.4489411764706 335.413867820454,152.23529411764704 336.76081631691284,150.02164705882353 338.5289387757641,147.808 340.60985065381277,145.59435294117645 342.8719703946347,143.38070588235294 345.1857721332909,141.16705882352937 347.43508766563286,138.9534117647059 349.51931825894746,136.73976470588235 351.35529704981207,134.5261176470588 352.884301365086,132.3124705882353 354.08314749310756,130.09882352941176 354.97325220494224,127.88517647058822 355.62082248486854,125.67152941176468 356.12477191881857,123.45788235294114 356.5943625142109,121.24423529411763 357.1232093140244,119.03058823529409 357.7680807893941,116.81694117647058 358.5391586522486,114.60329411764704 359.40398309329106,112.38964705882347 360.3023069396547,110.17599999999999 361.1657383886596,107.96235294117648 361.93554240684625,105.74870588235294 362.573962764746,103.5350588235294 363.0675581793758,101.32141176470586 363.4238470559203,99.10776470588232 363.66413164729755,96.8941176470588 364.33586835270245,96.8941176470588 364.5761529440797,99.10776470588232 364.9324418206242,101.32141176470586 365.426037235254,103.5350588235294 366.06445759315375,105.74870588235294 366.8342616113404,107.96235294117648 367.6976930603453,110.17599999999999 368.59601690670894,112.38964705882347 369.4608413477514,114.60329411764704 370.2319192106059,116.81694117647058 370.8767906859756,119.03058823529409 371.4056374857891,121.24423529411763 371.87522808118143,123.45788235294114 372.37917751513146,125.67152941176468 373.02674779505776,127.88517647058822 373.91685250689244,130.09882352941176 375.115698634914,132.3124705882353 376.64470295018793,134.5261176470588 378.48068174105254,136.73976470588235 380.56491233436714,138.9534117647059 382.8142278667091,141.16705882352937 385.1280296053653,143.38070588235294 387.39014934618723,145.59435294117645 389.4710612242359,147.808 391.23918368308716,150.02164705882353 392.586132179546,152.23529411764704 393.4604684520306,154.4489411764706 393.8937828904333,156.66258823529412 394.0,158.87623529411766 393.9381723225713,161.08988235294117 393.84752219000404,163.3035294117647 393.78099755484715,165.51717647058823 393.66906463700525,167.73082352941177 393.33411910281984,169.94447058823528 392.5528863074567,172.15811764705882 391.1416904724749,174.37176470588233 389.0293656681462,176.5854117647059 386.2894239917258,178.7990588235294 383.12213428041173,181.01270588235295 379.7980418889567,183.2263529411765 376.5875336720045,185.44 373.70205359090033,187.65364705882357 371.2634230806184,189.86729411764708 369.304210618728,192.0809411764706 367.7905520390836,194.29458823529413 366.6534125400944,196.50823529411764 365.8157278628166,198.7218823529412 365.2087745056426,200.93552941176472 364.77767249284034,203.14917647058823 364.480022302753,205.36282352941177 364.28235105830095,207.5764705882353" stroke="#2a788e" fill="#2a788e" fill-opacity="0.4" stroke-width="1"><title>:measurement: petal_length
:value: 5.55
:species: virginica</title> points="363.71764894169905,207.5764705882353 363.519977697247,205.36282352941177 363.22232750715966,203.14917647058823 362.7912254943574,200.93552941176472 362.1842721371834,198.7218823529412 361.3465874599056,196.50823529411764 360.2094479609164,194.29458823529413 358.695789381272,192.0809411764706 356.7365769193816,189.86729411764708 354.29794640909967,187.65364705882357 351.4124663279955,185.44 348.2019581110433,183.2263529411765 344.87786571958827,181.01270588235295 341.7105760082742,178.7990588235294 338.9706343318538,176.5854117647059 336.8583095275251,174.37176470588233 335.4471136925433,172.15811764705882 334.66588089718016,169.94447058823528 334.33093536299475,167.73082352941177 334.21900244515285,165.51717647058823 334.15247780999596,163.3035294117647 334.0618276774287,161.08988235294117 334.0,158.87623529411766 334.1062171095667,156.66258823529412 334.5395315479694,154.4489411764706 335.413867820454,152.23529411764704 336.76081631691284,150.02164705882353 338.5289387757641,147.808 340.60985065381277,145.59435294117645 342.8719703946347,143.38070588235294 345.1857721332909,141.16705882352937 347.43508766563286,138.9534117647059 349.51931825894746,136.73976470588235 351.35529704981207,134.5261176470588 352.884301365086,132.3124705882353 354.08314749310756,130.09882352941176 354.97325220494224,127.88517647058822 355.62082248486854,125.67152941176468 356.12477191881857,123.45788235294114 356.5943625142109,121.24423529411763 357.1232093140244,119.03058823529409 357.7680807893941,116.81694117647058 358.5391586522486,114.60329411764704 359.40398309329106,112.38964705882347 360.3023069396547,110.17599999999999 361.1657383886596,107.96235294117648 361.93554240684625,105.74870588235294 362.573962764746,103.5350588235294 363.0675581793758,101.32141176470586 363.4238470559203,99.10776470588232 363.66413164729755,96.8941176470588 364.33586835270245,96.8941176470588 364.5761529440797,99.10776470588232 364.9324418206242,101.32141176470586 365.426037235254,103.5350588235294 366.06445759315375,105.74870588235294 366.8342616113404,107.96235294117648 367.6976930603453,110.17599999999999 368.59601690670894,112.38964705882347 369.4608413477514,114.60329411764704 370.2319192106059,116.81694117647058 370.8767906859756,119.03058823529409 371.4056374857891,121.24423529411763 371.87522808118143,123.45788235294114 372.37917751513146,125.67152941176468 373.02674779505776,127.88517647058822 373.91685250689244,130.09882352941176 375.115698634914,132.3124705882353 376.64470295018793,134.5261176470588 378.48068174105254,136.73976470588235 380.56491233436714,138.9534117647059 382.8142278667091,141.16705882352937 385.1280296053653,143.38070588235294 387.39014934618723,145.59435294117645 389.4710612242359,147.808 391.23918368308716,150.02164705882353 392.586132179546,152.23529411764704 393.4604684520306,154.4489411764706 393.8937828904333,156.66258823529412 394.0,158.87623529411766 393.9381723225713,161.08988235294117 393.84752219000404,163.3035294117647 393.78099755484715,165.51717647058823 393.66906463700525,167.73082352941177 393.33411910281984,169.94447058823528 392.5528863074567,172.15811764705882 391.1416904724749,174.37176470588233 389.0293656681462,176.5854117647059 386.2894239917258,178.7990588235294 383.12213428041173,181.01270588235295 379.7980418889567,183.2263529411765 376.5875336720045,185.44 373.70205359090033,187.65364705882357 371.2634230806184,189.86729411764708 369.304210618728,192.0809411764706 367.7905520390836,194.29458823529413 366.6534125400944,196.50823529411764 365.8157278628166,198.7218823529412 365.2087745056426,200.93552941176472 364.77767249284034,203.14917647058823 364.480022302753,205.36282352941177 364.28235105830095,207.5764705882353" stroke="#2a788e" fill="#2a788e" fill-opacity="0.4" stroke-width="1" drake-tooltip=":measurement: petal_length
:value: 5.55
:species: virginica"></polyline><line x1="334.0" x2="394.0" y1="157.1764705882353" y2="157.1764705882353" stroke="black" stroke-width="2"></line><polyline points="491.2316213172068,340.0 490.66984731975776,339.5388235294118 489.86598391940913,339.0776470588235 488.8140935440701,338.6164705882353 487.5440147838097,338.15529411764703 486.09891116888457,337.6941176470588 484.488281123195,337.2329411764706 482.64073292429896,336.77176470588233 480.39808918084753,336.3105882352941 477.58436810817875,335.8494117647059 474.1422515649716,335.38823529411764 470.27379341298956,334.9270588235294 466.49082946501403,334.46588235294115 463.50849013191026,334.00470588235294 462.0,333.5435294117647 462.3235267138342,333.08235294117645 464.36583175418207,332.62117647058824 467.5904315408347,332.16 471.2622467180695,331.69882352941175 474.72331885070247,331.23764705882354 477.5790191439368,330.77647058823527 479.7247671964459,330.31529411764706 481.2444483545247,329.85411764705884 482.27502044099737,329.3929411764706 482.92442738365617,328.93176470588236 483.27071592367355,328.47058823529414 483.40773949835966,328.0094117647059 483.47815531631846,327.54823529411766 483.6562446711241,327.0870588235294 484.08802640147366,326.6258823529412 484.82949630346087,326.16470588235296 485.8243075297873,325.7035294117647 486.93410816535715,325.2423529411765 488.0011785296221,324.78117647058826 488.90708972959186,324.32 489.6000825519855,323.8588235294118 490.08710064334383,323.3976470588235 490.4062793176032,322.9364705882353 490.60092042158595,322.4752941176471 490.70743085720005,322.0141176470588 490.75656144164554,321.5529411764706 490.77898376612177,321.0917647058824 490.8065391524908,320.6305882352941 490.86672640573306,320.1694117647059 490.97443752774416,319.7082352941176 491.1271569008857,319.2470588235294 491.3071859622227,318.7858823529412 491.4897078659047,318.32470588235293 491.6522464541268,317.8635294117647 491.78109879153834,317.40235294117645 491.87284380658315,316.94117647058823 492.12715619341685,316.94117647058823 492.21890120846166,317.40235294117645 492.3477535458732,317.8635294117647 492.5102921340953,318.32470588235293 492.6928140377773,318.7858823529412 492.8728430991143,319.2470588235294 493.02556247225584,319.7082352941176 493.13327359426694,320.1694117647059 493.1934608475092,320.6305882352941 493.22101623387823,321.0917647058824 493.24343855835446,321.5529411764706 493.29256914279995,322.0141176470588 493.39907957841405,322.4752941176471 493.5937206823968,322.9364705882353 493.91289935665617,323.3976470588235 494.3999174480145,323.8588235294118 495.09291027040814,324.32 495.9988214703779,324.78117647058826 497.06589183464285,325.2423529411765 498.1756924702127,325.7035294117647 499.17050369653913,326.16470588235296 499.91197359852634,326.6258823529412 500.3437553288759,327.0870588235294 500.52184468368154,327.54823529411766 500.59226050164034,328.0094117647059 500.72928407632645,328.47058823529414 501.07557261634383,328.93176470588236 501.72497955900263,329.3929411764706 502.7555516454753,329.85411764705884 504.2752328035541,330.31529411764706 506.4209808560632,330.77647058823527 509.27668114929753,331.23764705882354 512.7377532819305,331.69882352941175 516.4095684591654,332.16 519.6341682458179,332.62117647058824 521.6764732861658,333.08235294117645 522.0,333.5435294117647 520.4915098680898,334.00470588235294 517.509170534986,334.46588235294115 513.7262065870104,334.9270588235294 509.8577484350284,335.38823529411764 506.41563189182125,335.8494117647059 503.60191081915247,336.3105882352941 501.35926707570104,336.77176470588233 499.511718876805,337.2329411764706 497.90108883111543,337.6941176470588 496.4559852161903,338.15529411764703 495.1859064559299,338.6164705882353 494.13401608059087,339.0776470588235 493.33015268024224,339.5388235294118 492.7683786827932,340.0" stroke="#440154" fill="#440154" fill-opacity="0.4" stroke-width="1"><title>:measurement: petal_width
:value: 0.2
:species: setosa</title> points="491.2316213172068,340.0 490.66984731975776,339.5388235294118 489.86598391940913,339.0776470588235 488.8140935440701,338.6164705882353 487.5440147838097,338.15529411764703 486.09891116888457,337.6941176470588 484.488281123195,337.2329411764706 482.64073292429896,336.77176470588233 480.39808918084753,336.3105882352941 477.58436810817875,335.8494117647059 474.1422515649716,335.38823529411764 470.27379341298956,334.9270588235294 466.49082946501403,334.46588235294115 463.50849013191026,334.00470588235294 462.0,333.5435294117647 462.3235267138342,333.08235294117645 464.36583175418207,332.62117647058824 467.5904315408347,332.16 471.2622467180695,331.69882352941175 474.72331885070247,331.23764705882354 477.5790191439368,330.77647058823527 479.7247671964459,330.31529411764706 481.2444483545247,329.85411764705884 482.27502044099737,329.3929411764706 482.92442738365617,328.93176470588236 483.27071592367355,328.47058823529414 483.40773949835966,328.0094117647059 483.47815531631846,327.54823529411766 483.6562446711241,327.0870588235294 484.08802640147366,326.6258823529412 484.82949630346087,326.16470588235296 485.8243075297873,325.7035294117647 486.93410816535715,325.2423529411765 488.0011785296221,324.78117647058826 488.90708972959186,324.32 489.6000825519855,323.8588235294118 490.08710064334383,323.3976470588235 490.4062793176032,322.9364705882353 490.60092042158595,322.4752941176471 490.70743085720005,322.0141176470588 490.75656144164554,321.5529411764706 490.77898376612177,321.0917647058824 490.8065391524908,320.6305882352941 490.86672640573306,320.1694117647059 490.97443752774416,319.7082352941176 491.1271569008857,319.2470588235294 491.3071859622227,318.7858823529412 491.4897078659047,318.32470588235293 491.6522464541268,317.8635294117647 491.78109879153834,317.40235294117645 491.87284380658315,316.94117647058823 492.12715619341685,316.94117647058823 492.21890120846166,317.40235294117645 492.3477535458732,317.8635294117647 492.5102921340953,318.32470588235293 492.6928140377773,318.7858823529412 492.8728430991143,319.2470588235294 493.02556247225584,319.7082352941176 493.13327359426694,320.1694117647059 493.1934608475092,320.6305882352941 493.22101623387823,321.0917647058824 493.24343855835446,321.5529411764706 493.29256914279995,322.0141176470588 493.39907957841405,322.4752941176471 493.5937206823968,322.9364705882353 493.91289935665617,323.3976470588235 494.3999174480145,323.8588235294118 495.09291027040814,324.32 495.9988214703779,324.78117647058826 497.06589183464285,325.2423529411765 498.1756924702127,325.7035294117647 499.17050369653913,326.16470588235296 499.91197359852634,326.6258823529412 500.3437553288759,327.0870588235294 500.52184468368154,327.54823529411766 500.59226050164034,328.0094117647059 500.72928407632645,328.47058823529414 501.07557261634383,328.93176470588236 501.72497955900263,329.3929411764706 502.7555516454753,329.85411764705884 504.2752328035541,330.31529411764706 506.4209808560632,330.77647058823527 509.27668114929753,331.23764705882354 512.7377532819305,331.69882352941175 516.4095684591654,332.16 519.6341682458179,332.62117647058824 521.6764732861658,333.08235294117645 522.0,333.5435294117647 520.4915098680898,334.00470588235294 517.509170534986,334.46588235294115 513.7262065870104,334.9270588235294 509.8577484350284,335.38823529411764 506.41563189182125,335.8494117647059 503.60191081915247,336.3105882352941 501.35926707570104,336.77176470588233 499.511718876805,337.2329411764706 497.90108883111543,337.6941176470588 496.4559852161903,338.15529411764703 495.1859064559299,338.6164705882353 494.13401608059087,339.0776470588235 493.33015268024224,339.5388235294118 492.7683786827932,340.0" stroke="#440154" fill="#440154" fill-opacity="0.4" stroke-width="1" drake-tooltip=":measurement: petal_width
:value: 0.2
:species: setosa"></polyline><line x1="462.0" x2="522.0" y1="333.4117647058824" y2="333.4117647058824" stroke="black" stroke-width="2"></line><polyline points="489.85343127669097,312.3294117647059 488.738168254389,311.59152941176467 487.3215142266622,310.8536470588235 485.65791329401685,310.1157647058824 483.86020025087714,309.3778823529412 482.0841824094065,308.64 480.4948703734606,307.90211764705884 479.2230217399131,307.16423529411765 478.3263074553184,306.42635294117645 477.76907937221006,305.6884705882353 477.4281170260546,304.9505882352941 477.1221460396496,304.2127058823529 476.6551995887356,303.47482352941176 475.8613519527968,302.7369411764706 474.6408449106435,301.9990588235294 472.9821703049801,301.2611764705882 470.96801676282394,300.5232941176471 468.76412124482715,299.7854117647059 466.5907188382547,299.0475294117647 464.67906462773885,298.30964705882354 463.221101551825,297.57176470588234 462.32615177270986,296.83388235294115 462.0,296.096 462.1558983412915,295.3581176470588 462.65512869559035,294.6202352941176 463.3622453947564,293.88235294117646 464.193464855049,293.1444705882353 465.1395117460982,292.4065882352941 466.2553363958896,291.6687058823529 467.62319550168786,290.9308235294118 469.30613302283876,290.1929411764706 471.31137363053307,289.4550588235294 473.5770372563216,288.71717647058824 475.98448044612246,287.97929411764704 478.38813136023407,287.2414117647059 480.64956550632337,286.5035294117647 482.6640467867925,285.76564705882356 484.3735618661556,285.02776470588236 485.76665095283494,284.28988235294116 486.869173189104,283.552 487.73089375042986,282.8141176470588 488.41161711462706,282.0762352941176 488.96910733777077,281.3383529411765 489.45010209820697,280.6004705882353 489.88527294635213,279.8625882352941 490.2885071932997,279.12470588235294 490.66008583264164,278.38682352941174 490.9923846445377,277.64894117647054 491.2761111333919,276.9110588235294 491.50518442593113,276.17317647058826 491.67914828886,275.43529411764706 492.32085171114,275.43529411764706 492.49481557406887,276.17317647058826 492.7238888666081,276.9110588235294 493.0076153554623,277.64894117647054 493.33991416735836,278.38682352941174 493.7114928067003,279.12470588235294 494.11472705364787,279.8625882352941 494.54989790179303,280.6004705882353 495.03089266222923,281.3383529411765 495.58838288537294,282.0762352941176 496.26910624957014,282.8141176470588 497.130826810896,283.552 498.23334904716506,284.28988235294116 499.6264381338444,285.02776470588236 501.3359532132075,285.76564705882356 503.35043449367663,286.5035294117647 505.61186863976593,287.2414117647059 508.01551955387754,287.97929411764704 510.4229627436784,288.71717647058824 512.6886263694669,289.4550588235294 514.6938669771612,290.1929411764706 516.3768044983121,290.9308235294118 517.7446636041103,291.6687058823529 518.8604882539018,292.4065882352941 519.806535144951,293.1444705882353 520.6377546052436,293.88235294117646 521.3448713044097,294.6202352941176 521.8441016587085,295.3581176470588 522.0,296.096 521.6738482272901,296.83388235294115 520.778898448175,297.57176470588234 519.3209353722611,298.30964705882354 517.4092811617453,299.0475294117647 515.2358787551728,299.7854117647059 513.0319832371761,300.5232941176471 511.0178296950199,301.2611764705882 509.3591550893565,301.9990588235294 508.1386480472032,302.7369411764706 507.3448004112644,303.47482352941176 506.8778539603504,304.2127058823529 506.5718829739454,304.9505882352941 506.23092062778994,305.6884705882353 505.6736925446816,306.42635294117645 504.7769782600869,307.16423529411765 503.5051296265394,307.90211764705884 501.9158175905935,308.64 500.13979974912286,309.3778823529412 498.34208670598315,310.1157647058824 496.6784857733378,310.8536470588235 495.261831745611,311.59152941176467 494.14656872330903,312.3294117647059" stroke="#414487" fill="#414487" fill-opacity="0.4" stroke-width="1"><title>:measurement: petal_width
:value: 1.3
:species: versicolor</title> points="489.85343127669097,312.3294117647059 488.738168254389,311.59152941176467 487.3215142266622,310.8536470588235 485.65791329401685,310.1157647058824 483.86020025087714,309.3778823529412 482.0841824094065,308.64 480.4948703734606,307.90211764705884 479.2230217399131,307.16423529411765 478.3263074553184,306.42635294117645 477.76907937221006,305.6884705882353 477.4281170260546,304.9505882352941 477.1221460396496,304.2127058823529 476.6551995887356,303.47482352941176 475.8613519527968,302.7369411764706 474.6408449106435,301.9990588235294 472.9821703049801,301.2611764705882 470.96801676282394,300.5232941176471 468.76412124482715,299.7854117647059 466.5907188382547,299.0475294117647 464.67906462773885,298.30964705882354 463.221101551825,297.57176470588234 462.32615177270986,296.83388235294115 462.0,296.096 462.1558983412915,295.3581176470588 462.65512869559035,294.6202352941176 463.3622453947564,293.88235294117646 464.193464855049,293.1444705882353 465.1395117460982,292.4065882352941 466.2553363958896,291.6687058823529 467.62319550168786,290.9308235294118 469.30613302283876,290.1929411764706 471.31137363053307,289.4550588235294 473.5770372563216,288.71717647058824 475.98448044612246,287.97929411764704 478.38813136023407,287.2414117647059 480.64956550632337,286.5035294117647 482.6640467867925,285.76564705882356 484.3735618661556,285.02776470588236 485.76665095283494,284.28988235294116 486.869173189104,283.552 487.73089375042986,282.8141176470588 488.41161711462706,282.0762352941176 488.96910733777077,281.3383529411765 489.45010209820697,280.6004705882353 489.88527294635213,279.8625882352941 490.2885071932997,279.12470588235294 490.66008583264164,278.38682352941174 490.9923846445377,277.64894117647054 491.2761111333919,276.9110588235294 491.50518442593113,276.17317647058826 491.67914828886,275.43529411764706 492.32085171114,275.43529411764706 492.49481557406887,276.17317647058826 492.7238888666081,276.9110588235294 493.0076153554623,277.64894117647054 493.33991416735836,278.38682352941174 493.7114928067003,279.12470588235294 494.11472705364787,279.8625882352941 494.54989790179303,280.6004705882353 495.03089266222923,281.3383529411765 495.58838288537294,282.0762352941176 496.26910624957014,282.8141176470588 497.130826810896,283.552 498.23334904716506,284.28988235294116 499.6264381338444,285.02776470588236 501.3359532132075,285.76564705882356 503.35043449367663,286.5035294117647 505.61186863976593,287.2414117647059 508.01551955387754,287.97929411764704 510.4229627436784,288.71717647058824 512.6886263694669,289.4550588235294 514.6938669771612,290.1929411764706 516.3768044983121,290.9308235294118 517.7446636041103,291.6687058823529 518.8604882539018,292.4065882352941 519.806535144951,293.1444705882353 520.6377546052436,293.88235294117646 521.3448713044097,294.6202352941176 521.8441016587085,295.3581176470588 522.0,296.096 521.6738482272901,296.83388235294115 520.778898448175,297.57176470588234 519.3209353722611,298.30964705882354 517.4092811617453,299.0475294117647 515.2358787551728,299.7854117647059 513.0319832371761,300.5232941176471 511.0178296950199,301.2611764705882 509.3591550893565,301.9990588235294 508.1386480472032,302.7369411764706 507.3448004112644,303.47482352941176 506.8778539603504,304.2127058823529 506.5718829739454,304.9505882352941 506.23092062778994,305.6884705882353 505.6736925446816,306.42635294117645 504.7769782600869,307.16423529411765 503.5051296265394,307.90211764705884 501.9158175905935,308.64 500.13979974912286,309.3778823529412 498.34208670598315,310.1157647058824 496.6784857733378,310.8536470588235 495.261831745611,311.59152941176467 494.14656872330903,312.3294117647059" stroke="#414487" fill="#414487" fill-opacity="0.4" stroke-width="1" drake-tooltip=":measurement: petal_width
:value: 1.3
:species: versicolor"></polyline><line x1="462.0" x2="522.0" y1="297.1764705882353" y2="297.1764705882353" stroke="black" stroke-width="2"></line><polyline points="491.5457614839139,301.1294117647059 491.27993171299704,300.11482352941175 490.9140135224033,299.1002352941176 490.43952636544816,298.0856470588235 489.8601003967886,297.0710588235294 489.1937441103911,296.0564705882353 488.4711649033802,295.0418823529412 487.7288961723105,294.02729411764705 486.9973220619463,293.012705882353 486.28560153889856,291.99811764705885 485.56754789957125,290.9835294117647 484.7740136374107,289.9689411764706 483.79737117504123,288.95435294117647 482.5114652540812,287.93976470588234 480.80573377681964,286.9251764705882 478.6259987310876,285.9105882352941 476.00903721969013,284.896 473.09652886817975,283.8814117647059 470.1186056984854,282.86682352941176 467.3476174514815,281.85223529411763 465.0350316153224,280.83764705882356 463.3526630500592,279.82305882352944 462.35882723730185,278.8084705882353 462.0,277.7938823529412 462.14378270701985,276.77929411764705 462.626812043541,275.7647058823529 463.29761302804474,274.7501176470588 464.04036256970915,273.7355294117647 464.7771068761185,272.72094117647055 465.4567008691724,271.7063529411765 466.04334226747477,270.69176470588235 466.5145003754702,269.6771764705882 466.8697912982222,268.66258823529415 467.1438781068213,267.648 467.4125605830939,266.6334117647059 467.7840227476169,265.61882352941177 468.37508693739403,264.60423529411764 469.28069343195347,263.5896470588235 470.5487910994186,262.5750588235294 472.1701666414656,261.56047058823526 474.08527967520456,260.5458823529412 476.2025042452787,259.53129411764706 478.41860077396257,258.51670588235294 480.6340564291302,257.5021176470588 482.76098693873075,256.4875294117647 484.72589140101667,255.4729411764706 486.47109530769876,254.45835294117649 487.95715275448333,253.44376470588236 489.1657579299175,252.42917647058823 490.10103620938776,251.4145882352941 490.7873878946635,250.39999999999998 493.2126121053365,250.39999999999998 493.89896379061224,251.4145882352941 494.8342420700825,252.42917647058823 496.04284724551667,253.44376470588236 497.52890469230124,254.45835294117649 499.27410859898333,255.4729411764706 501.23901306126925,256.4875294117647 503.3659435708698,257.5021176470588 505.58139922603743,258.51670588235294 507.7974957547213,259.53129411764706 509.91472032479544,260.5458823529412 511.8298333585344,261.56047058823526 513.4512089005814,262.5750588235294 514.7193065680466,263.5896470588235 515.624913062606,264.60423529411764 516.215977252383,265.61882352941177 516.5874394169061,266.6334117647059 516.8561218931786,267.648 517.1302087017779,268.66258823529415 517.4854996245298,269.6771764705882 517.9566577325252,270.69176470588235 518.5432991308276,271.7063529411765 519.2228931238815,272.72094117647055 519.9596374302909,273.7355294117647 520.7023869719553,274.7501176470588 521.373187956459,275.7647058823529 521.8562172929801,276.77929411764705 522.0,277.7938823529412 521.6411727626981,278.8084705882353 520.6473369499407,279.82305882352944 518.9649683846776,280.83764705882356 516.6523825485185,281.85223529411763 513.8813943015147,282.86682352941176 510.90347113182025,283.8814117647059 507.99096278030987,284.896 505.3740012689124,285.9105882352941 503.19426622318036,286.9251764705882 501.4885347459188,287.93976470588234 500.20262882495877,288.95435294117647 499.2259863625893,289.9689411764706 498.43245210042875,290.9835294117647 497.71439846110144,291.99811764705885 497.0026779380537,293.012705882353 496.2711038276895,294.02729411764705 495.5288350966198,295.0418823529412 494.8062558896089,296.0564705882353 494.1398996032114,297.0710588235294 493.56047363455184,298.0856470588235 493.0859864775967,299.1002352941176 492.72006828700296,300.11482352941175 492.4542385160861,301.1294117647059" stroke="#2a788e" fill="#2a788e" fill-opacity="0.4" stroke-width="1"><title>:measurement: petal_width
:value: 2.0
:species: virginica</title> points="491.5457614839139,301.1294117647059 491.27993171299704,300.11482352941175 490.9140135224033,299.1002352941176 490.43952636544816,298.0856470588235 489.8601003967886,297.0710588235294 489.1937441103911,296.0564705882353 488.4711649033802,295.0418823529412 487.7288961723105,294.02729411764705 486.9973220619463,293.012705882353 486.28560153889856,291.99811764705885 485.56754789957125,290.9835294117647 484.7740136374107,289.9689411764706 483.79737117504123,288.95435294117647 482.5114652540812,287.93976470588234 480.80573377681964,286.9251764705882 478.6259987310876,285.9105882352941 476.00903721969013,284.896 473.09652886817975,283.8814117647059 470.1186056984854,282.86682352941176 467.3476174514815,281.85223529411763 465.0350316153224,280.83764705882356 463.3526630500592,279.82305882352944 462.35882723730185,278.8084705882353 462.0,277.7938823529412 462.14378270701985,276.77929411764705 462.626812043541,275.7647058823529 463.29761302804474,274.7501176470588 464.04036256970915,273.7355294117647 464.7771068761185,272.72094117647055 465.4567008691724,271.7063529411765 466.04334226747477,270.69176470588235 466.5145003754702,269.6771764705882 466.8697912982222,268.66258823529415 467.1438781068213,267.648 467.4125605830939,266.6334117647059 467.7840227476169,265.61882352941177 468.37508693739403,264.60423529411764 469.28069343195347,263.5896470588235 470.5487910994186,262.5750588235294 472.1701666414656,261.56047058823526 474.08527967520456,260.5458823529412 476.2025042452787,259.53129411764706 478.41860077396257,258.51670588235294 480.6340564291302,257.5021176470588 482.76098693873075,256.4875294117647 484.72589140101667,255.4729411764706 486.47109530769876,254.45835294117649 487.95715275448333,253.44376470588236 489.1657579299175,252.42917647058823 490.10103620938776,251.4145882352941 490.7873878946635,250.39999999999998 493.2126121053365,250.39999999999998 493.89896379061224,251.4145882352941 494.8342420700825,252.42917647058823 496.04284724551667,253.44376470588236 497.52890469230124,254.45835294117649 499.27410859898333,255.4729411764706 501.23901306126925,256.4875294117647 503.3659435708698,257.5021176470588 505.58139922603743,258.51670588235294 507.7974957547213,259.53129411764706 509.91472032479544,260.5458823529412 511.8298333585344,261.56047058823526 513.4512089005814,262.5750588235294 514.7193065680466,263.5896470588235 515.624913062606,264.60423529411764 516.215977252383,265.61882352941177 516.5874394169061,266.6334117647059 516.8561218931786,267.648 517.1302087017779,268.66258823529415 517.4854996245298,269.6771764705882 517.9566577325252,270.69176470588235 518.5432991308276,271.7063529411765 519.2228931238815,272.72094117647055 519.9596374302909,273.7355294117647 520.7023869719553,274.7501176470588 521.373187956459,275.7647058823529 521.8562172929801,276.77929411764705 522.0,277.7938823529412 521.6411727626981,278.8084705882353 520.6473369499407,279.82305882352944 518.9649683846776,280.83764705882356 516.6523825485185,281.85223529411763 513.8813943015147,282.86682352941176 510.90347113182025,283.8814117647059 507.99096278030987,284.896 505.3740012689124,285.9105882352941 503.19426622318036,286.9251764705882 501.4885347459188,287.93976470588234 500.20262882495877,288.95435294117647 499.2259863625893,289.9689411764706 498.43245210042875,290.9835294117647 497.71439846110144,291.99811764705885 497.0026779380537,293.012705882353 496.2711038276895,294.02729411764705 495.5288350966198,295.0418823529412 494.8062558896089,296.0564705882353 494.1398996032114,297.0710588235294 493.56047363455184,298.0856470588235 493.0859864775967,299.1002352941176 492.72006828700296,300.11482352941175 492.4542385160861,301.1294117647059" stroke="#2a788e" fill="#2a788e" fill-opacity="0.4" stroke-width="1" drake-tooltip=":measurement: petal_width
:value: 2.0
:species: virginica"></polyline><line x1="462.0" x2="522.0" y1="274.11764705882354" y2="274.11764705882354" stroke="black" stroke-width="2"></line><rect width="100" height="60" x="430" y="70" stroke="#cccccc" fill-opacity="0.9" fill="#ffffff"></rect><circle cx="440" cy="80" r="5" fill="#440154"></circle><text fill="#000000" font-size="10px" y="85" x="450">setosa</text><circle cx="440" cy="100" r="5" fill="#414487"></circle><text fill="#000000" font-size="10px" y="105" x="450">versicolor</text><circle cx="440" cy="120" r="5" fill="#2a788e"></circle><text fill="#000000" font-size="10px" y="125" x="450">virginica</text><text font-weight="bold" fill="#000000" font-size="16px" text-anchor="middle" y="30" x="300">DuckDB Result: violin</text></svg>